<?xml version="1.0" encoding="UTF-8" standalone="no"?>
<svg xmlns:rdf="http://www.w3.org/1999/02/22-rdf-syntax-ns#" xmlns="http://www.w3.org/2000/svg" xml:space="preserve" height="148.83" viewBox="0 0 147.47071 148.83007" width="147.47" version="1.1" xmlns:cc="http://creativecommons.org/ns#" xmlns:dc="http://purl.org/dc/elements/1.1/"><g transform="matrix(1.25 0 0 -1.25 -70.357 520.93)"><g transform="translate(.86592 .86592)"><ellipse rx="57.65" ry="58.278" transform="scale(1,-1)" cy="-356.38" cx="114.36" fill="#fff"/><ellipse rx="55.062" ry="55.576" transform="scale(1,-1)" cy="-356.46" cx="114.34" fill="#cdb87d"/><path d="m77.721 21.529-10.018 0.22461-0.11133 3.1465-10.908 0.11133v4.0449l1.6699 2.1348-0.55664 3.4824-1.1133 1.125-0.66797 7.3027-16.807 0.44922c0 32.021-2.5622 51.344 33.168 70.557 38.293-18.541 33.393-45.956 33.393-70.672l-16.362-0.45-0.668-7.189-1.336-1.237-0.334-3.82 1.557-1.91 0.225-3.82-11.02 0.113-0.111-3.596zm-39.736 57.188-2.8945 6.6289-6.2344-5.2812 5.4551 15.279s-2.4483 1.6864-3.4844 2.3555c7.3076 16.735 28.641 23.486 33.127 24.42 0 0 0.74434 1.4257 0.85547 2.0996 1.3366 1.7979 15.249 0.44916 15.736 0.0703 0.49064-0.37952 0.29242-0.51982 0.4043-1.9805 19.143-4.4942 27.829-14.717 33.617-24.492 0 0-2.0048-1.5739-3.5645-2.6973 1.2248-2.1345 4.0088-9.9991 5.1211-14.605l-5.6758 4.6055s-1.6694-4.1556-3.1172-6.4023c-2.451 11.909-7.2375 17.302-7.5703 17.863-0.33484 0.56168 1.669 2.0232 2.3359 2.4727-9.5725 10.224-18.141 12.583-20.479 13.369-2.3377 0.78607-3.5625 1.0117-3.5625 1.0117s0.44497 1.3479-0.22266 1.5723c-0.66831 0.22512-10.348 0.10547-10.348 0.10547l0.10742-0.66797s-0.22318-1.0108-1.002-1.4609c-6.5679-0.67387-16.474-7.3019-18.365-8.6504-1.8924-1.3478-4.7871-5.5059-4.7871-5.5059s1.7819-1.5723 2.2656-2.4727c-3.3018-2.9227-6.0493-12.019-7.7188-17.637z" transform="matrix(.8 0 0 -.8 56.285 415.14)" fill="#fff"/><g fill="#cdb87d"><path d="m110.09 394.95 1.7813-2.0672-0.80143-2.6966h-2.4938l-0.0889 0.62942 1.1577 1.2583 0.44518 2.8761z"/><path d="m117.22 393.25 1.7807 1.5281 0.0889-2.7864 1.5139-1.8877-3.0279 0.0898-0.3557 3.0562z"/><path d="m91.7 349.68c-1.6748 5.0182-2.0085 8.7088-2.0865 13.474l50.027-0.009c0.005-3.8197-0.4062-8.4223-2.1068-13.474l-45.834 0.008z" fill-rule="evenodd"/></g><path d="m72.736 0c-40.108 0-72.736 32.935-72.736 73.418s32.628 73.412 72.736 73.412 72.734-32.929 72.734-73.412-32.63-73.418-72.734-73.418zm0 1.2852c39.405 0 71.461 32.359 71.461 72.133s-32.056 72.129-71.461 72.129c-39.404 0-71.465-32.355-71.465-72.129s32.061-72.133 71.465-72.133zm0 2.1602c-38.224 0-69.324 31.39-69.324 69.973 0 38.582 31.101 69.969 69.324 69.969 38.224 0 69.324-31.387 69.324-69.969 0-38.583-31.1-69.973-69.324-69.973zm0 14.766c30.207 0 54.691 24.718 54.691 55.207s-24.485 55.207-54.691 55.207c-30.207 0-54.693-24.718-54.693-55.207s24.487-55.207 54.693-55.207zm-5.6035 2.9805v3.2812h-11.029v4.875s1.2454 1.241 1.6914 1.6836c-0.0995 0.68635-0.41059 2.8364-0.47852 3.3066-0.2923 0.29504-1.1855 1.1992-1.1855 1.1992l-0.48828 6.916h-17.061v22.777c0 28.787 20.245 42.805 29.094 47.559-12.428-2.9248-19.598-8.8517-23.531-13.604 0.91464-0.72028 1.741-1.4403 2.3242-1.9688 0 0 0.19727-0.12759 0.19727-0.41016 0-0.28258-0.17774-0.43164-0.17774-0.43164-5.5791-5.5981-7.9272-18.282-7.9512-18.408l-0.35938-1.9746-0.73633 1.8633s-2.1026 5.3029-2.5918 6.5371c-0.98944-0.90244-6.8379-6.2441-6.8379-6.2441l0.42188 1.8105c0.11252 0.47788 2.0711 8.6884 5.3379 15.252-1.0505 0.65795-2.1756 1.3286-3.3105 1.9395-0.26829 0.14338-0.37879 0.47298-0.25391 0.75 3.8452 8.5388 16.64 21.323 33.799 24.9 0.02813 0.45226 0.04492 0.85488 0.04492 1.1797 0 1.079 1.4542 1.7461 8.6855 1.7461 7.2321 0 8.6816-0.66705 8.6816-1.7461 0-0.32481 0.0187-0.72743 0.04883-1.1797 17.158-3.5779 29.953-16.362 33.797-24.9 0.12425-0.27702 0.0142-0.60662-0.25195-0.75-1.1356-0.61085-2.2635-1.2815-3.3106-1.9395 3.2634-6.5636 5.222-14.774 5.3359-15.252l0.42187-1.8105s-5.8459 5.3417-6.834 6.2441c-0.4906-1.2342-3.332-8.3984-3.332-8.3984l-0.35742 1.9727c-0.0226 0.12605-2.372 12.81-7.9512 18.408 0 0-0.40455 0.43732 0.01953 0.8418 0.42061 0.40378 1.4075 1.2485 2.3242 1.9688-3.9385 4.7518-11.104 10.679-23.531 13.604 8.8494-4.7532 29.092-18.772 29.092-47.559v-22.777h-17.055l-0.51367-6.916s-0.89578-0.90487-1.1895-1.1992c-0.06587-0.47026-0.375-2.6203-0.47656-3.3066 0.44464-0.44255 1.6914-1.6816 1.6914-1.6816v-4.877h-11.01v-3.2812h-11.203zm1.0508 1.0605h1.7715v1.3223h-1.7715v-1.3223zm3.623 0h1.8496v1.3223h-1.8496v-1.3223zm3.7031 0h1.7773v0.22461l-0.02148 1.0977h-1.7559v-1.3223zm-7.3262 1.5586h0.96289v1.3359h-0.96289v-1.3359zm1.1934 0h3.2773v1.3359h-3.2773v-1.3359zm3.5059 0h3.2754v1.3359h-3.2754v-1.3359zm3.5059 0h0.86914l-0.02344 1.3359h-0.8457v-1.3359zm-8.2051 1.5742h2.7168v1.3359h-1.6035c-0.496-0.506-1.074-1.101-1.112-1.192v-0.14453zm2.9453 0h3.2207v1.3379h-3.2207v-1.3379zm3.4512 0h2.6465l-0.0059 0.30469s-0.57876 0.57415-1.0625 1.0312h-1.5781v-1.3359zm-17.428 0.14844h1.7695v1.1875h-1.7695v-1.1875zm3.625 0h1.8477v1.1875h-1.8477v-1.1875zm3.7012 0h1.7793v0.22461l-0.01953 0.96289h-1.7598v-1.1875zm14.713 0h1.7676v1.1875h-1.7676v-1.1875zm3.625 0h1.8496v1.1875h-1.8496v-1.1875zm3.6992 0h1.7793v0.22461l-0.01758 0.96289h-1.7617v-1.1875zm-19.209 0.70898c0.35818 0.3546 1.1731 1.1657 1.5176 1.5078-0.083 0.57208-0.31118 2.1508-0.42578 2.9355h-2.4316c0.54824-0.54368 1.3398-1.3359 1.3398-1.3359v-3.1074zm10.836 0.02148v3.084s0.79689 0.79422 1.3438 1.3379h-2.416c-0.11462-0.7847-0.34149-2.3635-0.42383-2.9355 0.33622-0.33382 1.1263-1.12 1.4961-1.4863zm-20.99 0.69141h0.91992v1.4512h-0.91992v-1.4512zm1.1504 0h3.2754v1.4512h-3.2754v-1.4512zm3.5059 0h3.2754v1.4512h-3.2754v-1.4512zm3.5059 0h0.91797l-0.0293 1.4512h-0.88867v-1.4512zm4.2109 0h3.1289v1.4512h-2.8184c0.0625-0.34005 0.12459-0.66489 0.18359-0.95508 0 0-0.21556-0.21559-0.49414-0.49609zm3.3574 0h3.0254c-0.21202 0.19116-0.372 0.32969-0.39258 0.31445 0.0037 0.01388 0.07351 0.50232 0.16406 1.1367h-2.7969v-1.4512zm6.3086 0h0.91992v1.4512h-0.91992v-1.4512zm1.1484 0h3.2793v1.4512h-3.2793v-1.4512zm3.5078 0h3.2754v1.4512h-3.2754v-1.4512zm3.5039 0h0.91797l-0.02734 1.4512h-0.89063v-1.4512zm-30.199 1.6855h2.6719v1.4512h-1.4707c-0.51462-0.52151-1.1627-1.1857-1.2012-1.2812v-0.16992zm2.9043 0h3.2734v1.4512h-3.2734v-1.4512zm3.5039 0h2.6387l-0.0059 0.33008s-0.65937 0.65429-1.1582 1.1211h-1.4746v-1.4512zm6.2363 0h1.1035v1.4512h-1.3555c0.07887-0.45919 0.1607-0.9546 0.25195-1.4512zm1.332 0h3.2207v1.4512h-3.2207v-1.4512zm3.4512 0h1.1348c0.06512 0.46888 0.13853 0.9823 0.20508 1.4512h-1.3398v-1.4512zm4.6113 0h2.6738v1.4512h-1.4727c-0.51461-0.52151-1.1621-1.1857-1.2012-1.2812v-0.16992zm2.9023 0h3.2754v1.4512h-3.2754v-1.4512zm3.5059 0h2.6348l-0.0059 0.33008s-0.65751 0.65429-1.1543 1.1211h-1.4746v-1.4512zm-27.016 1.6855h2.9941v1.4512h-2.7871c0.06587-0.37052 0.13403-0.73188 0.19922-1.0449 0 0-0.17296-0.17285-0.40625-0.40625zm3.2246 0h2.9727c-0.16331 0.14682-0.27708 0.23902-0.29492 0.22656 0 0.0038 0.0085 0.05664 0.01953 0.13281 0.0185 0.13366 0.0493 0.35862 0.0918 0.64258 0.01987 0.1399 0.04241 0.28993 0.06641 0.44922h-2.8555v-1.4512zm7.6953 0h3.1504v0.35938h-3.207c0.01713-0.11562 0.03665-0.23194 0.05664-0.35938zm3.3789 0h3.0703c0.01788 0.12881 0.03641 0.2444 0.05078 0.35938h-3.1211v-0.35938zm7.7383 0h2.998v1.4512h-2.7891c0.02813-0.15929 0.05648-0.29616 0.08398-0.44922 0.03775-0.20292 0.07611-0.41772 0.11524-0.5957 0 0-0.03508-0.03312-0.04883-0.04687-0.05213-0.05262-0.17411-0.17308-0.35938-0.35938zm3.2266 0h2.9727c-0.16399 0.14682-0.27835 0.23902-0.29687 0.22656 0.005 0.01312 0.08234 0.54866 0.17773 1.2246h-2.8535v-1.4512zm-18.725 1.6445h1.4102v1.4473h1.7227v-1.4473h1.8359v1.4473h1.7266v-1.4473h1.832v1.4473h1.7266v-1.4473h1.8359v1.4473h1.7246v-1.4473h1.4141c-0.08438 0.57138-0.40408 2.7293-0.4082 2.7598-0.04525-0.02913-1.0723 1.0059-1.0723 1.0059l-0.08398 0.08594s-0.36141 5.1073-0.46875 6.6309h-1.2754v-4.3574c0-2.3977-1.9305-4.3477-4.3066-4.3477-2.3755 0-4.3105 1.95-4.3105 4.3477v4.3574h-1.2734c-0.10684-1.5235-0.46875-6.6309-0.46875-6.6309s-1.2247-1.2349-1.2363-1.248c0.0037 0 0.0059-0.01258 0.0059-0.0332 0-0.25418-0.22578-1.8542-0.33008-2.5703zm-6.373 0.03906h1.0762v1.4531h-1.3262c0.0755-0.45156 0.16149-0.95585 0.25-1.4531zm1.3066 0h3.2734v1.4531h-3.2734v-1.4531zm3.5059 0h1.1328c0.07 0.4765 0.14242 0.99186 0.20898 1.4531h-1.3418v-1.4531zm17.227 0h1.0762v1.4531h-1.3262c0.07612-0.45156 0.15874-0.95585 0.25-1.4531zm1.3047 0h3.2754v1.4531h-3.2754v-1.4531zm3.5059 0h1.1328c0.06925 0.4765 0.14243 0.99186 0.20898 1.4531h-1.3418v-1.4531zm-27.139 1.6855h3.1172v1.4531h-3.5684c0.12488-0.12125 0.22096-0.21541 0.22852-0.2168 0.0295-0.09212 0.11497-0.58945 0.22266-1.2363zm3.3477 0h3.1289c0.07887 0.57139 0.14062 1.0147 0.14062 1.041 0 0.0012 0.16894 0.18287 0.37891 0.41211h-3.6484v-1.4531zm18.691 0h3.1191v1.4531h-3.5703c0.12488-0.12125 0.21901-0.21541 0.22656-0.2168 0.03088-0.09213 0.11756-0.58945 0.22461-1.2363zm3.3477 0h3.125c0.081 0.57139 0.14258 1.0147 0.14258 1.041 0 0.0012 0.1662 0.18287 0.37891 0.41211h-3.6465v-1.4531zm-11.271 0.55078v1.6309c-0.37534 0.02562-0.72939 0.13886-1.043 0.32031l-0.78711-1.3887c0.54001-0.33244 1.1618-0.5341 1.8301-0.5625zm0.31836 0c0.67244 0.02838 1.2993 0.23051 1.8379 0.56641l-0.78906 1.3867c-0.31358-0.18422-0.66869-0.29664-1.0488-0.32227v-1.6309zm-2.416 0.74023 0.78516 1.3867c-0.28406 0.22025-0.5186 0.50273-0.68945 0.82617l-1.2852-0.75781c0.27515-0.58038 0.68239-1.0783 1.1895-1.4551zm4.523 0.009c0.49678 0.3726 0.90407 0.86486 1.1758 1.4355l-1.2871 0.76367c-0.16742-0.31859-0.39641-0.59629-0.67773-0.81445l0.789-1.386zm-17.227 0.38672h2.0508v1.4512h-2.7051c0.04525-0.51112 0.07547-0.85499 0.08984-0.88476 0 0 0.29205-0.29353 0.56445-0.56641zm2.2832 0h3.2734v1.4512h-3.2734v-1.4512zm3.5059 0h2.1055c0.28132 0.31305 0.56678 0.63835 0.59766 0.70898l0.05273 0.74219h-2.7559v-1.4512zm16.248 0h2.0547v1.4512h-2.709l0.0918-0.88476s0.29148-0.29353 0.5625-0.56641zm2.2832 0h3.2754v1.4512h-3.2754v-1.4512zm3.5059 0h2.1074c0.28132 0.31305 0.56677 0.63835 0.59766 0.70898l0.05273 0.74219h-2.7578v-1.4512zm-9.2949 1.3457c0.15987 0.42731 0.26172 0.88503 0.26172 1.3691v0.15039h-1.3906c-0.01125-0.26595-0.06325-0.51958-0.15039-0.75781l1.2793-0.76172zm-7.1406 0.01172 1.2793 0.75586c-0.08713 0.23686-0.13962 0.48808-0.14648 0.75195h-1.3906v-0.15039c0-0.47995 0.09725-0.93356 0.25781-1.3574zm-12.064 0.32812h0.002 0.9707v1.4512h-1.0859c0.03837-0.53605 0.07904-1.0349 0.11328-1.4512zm1.2031 0h3.2754v1.4512h-3.2754v-1.4512zm3.5059 0h3.2754v1.4512h-3.2754v-1.4512zm3.5078 0h1.0195l0.10156 1.4512h-1.1211v-1.4512zm13.822 0h0.97266v1.4512h-1.0859c0.03775-0.53605 0.07829-1.0349 0.11328-1.4512zm1.2012 0h3.2793v1.4512h-3.2793v-1.4512zm3.5078 0h3.2754v1.4512h-3.2754v-1.4512zm3.5039 0h1.0215l0.10352 1.4512h-1.125v-1.4512zm-65.441 0.55274c-0.04322 3.402-0.81437 5.6081-4.2891 7.6914-0.01715-0.24379-0.02486-0.46582-0.03516-0.69922-0.0055-0.088-0.01088-0.17848-0.01367-0.26367-0.0027-0.10388-0.01758-0.21932-0.01758-0.31836 0-3.1928 1.2355-4.8865 4.3555-6.4102zm102.14 0c3.1192 1.5237 4.3555 3.2174 4.3555 6.4102 0 0.08662-0.009 0.18799-0.0137 0.27734-0.002 0.12125-0.0111 0.25022-0.0176 0.37695-0.0144 0.20985-0.0173 0.40684-0.0332 0.625-3.4754-2.084-4.2457-4.2882-4.291-7.6895zm-55.141 0.94726h1.3809v1.2656h-1.3809v-1.2656zm6.2754 0.002h1.3848v1.2637h-1.3848v-1.2637zm-18.213 0.18359h2.8555v1.4492h-2.9648c0.03637-0.48065 0.071-0.97342 0.10938-1.4492zm3.0879 0h3.2734v1.4492h-3.2734v-1.4492zm3.5059 0h2.8926l0.10156 1.4492h-2.9941v-1.4492zm15.445 0h2.8574v1.4492h-2.9688c0.03838-0.48065 0.07357-0.97342 0.11133-1.4492zm3.0859 0h3.2754v1.4492h-3.2754v-1.4492zm3.5059 0h2.8945l0.09961 1.4492h-2.9941v-1.4492zm-16.693 1.4004h1.3809v1.2656h-1.3809v-1.2656zm6.2754 0h1.3848v1.2656h-1.3848v-1.2656zm54.924 0.18359c0.16056 0.2978 0.37109 0.67969 0.37109 0.67969 0.81722 1.4551 1.6524 2.9395 1.6524 4.8379 0 1.2072-0.38064 2.6015-1.2754 4.2422-0.1489-0.20915-0.27835-0.39484-0.39844-0.57422-0.56333-1.6102-0.90199-2.1288-1.4434-2.8477-0.0281-0.0935-0.0578-0.18543-0.0859-0.28516l-0.21094-0.69141c-0.013-0.14059-0.0168-0.28071-0.0195-0.41992 0.0157-0.2424 0.0275-0.47458 0.0371-0.70312 0.10838-1.257 0.59426-2.5733 1.373-4.2383zm-114.25 0.002c0.80417 1.7169 1.2951 3.0634 1.3809 4.373 0.0069 0.16899 0.01499 0.33832 0.02734 0.51562-0.0055 0.16691-0.0095 0.33492-0.02734 0.50391-0.0034 0.0012-0.20117 0.65625-0.20117 0.65625-0.0295 0.10112-0.05977 0.19361-0.08789 0.28711-0.54206 0.71751-0.88071 1.2373-1.4434 2.8496-0.12214 0.17868-0.25092 0.3638-0.39844 0.57226-0.89269-1.64-1.2734-3.035-1.2734-4.2422 0-1.8984 0.83376-3.3847 1.6523-4.8398 0 0 0.20779-0.37798 0.37109-0.67578zm40.988 0.10352h1.2305v1.4473h-1.3359c0.03088-0.42594 0.06571-0.9202 0.10547-1.4473zm1.4609 0h3.2734v1.4473h-3.2734v-1.4473zm3.5059 0h3.2754v1.4473h-3.2754v-1.4473zm3.5059 0h1.2578l0.10547 1.4473h-1.3633v-1.4473zm13.564 0h1.2305v1.4473h-1.334c0.03087-0.42594 0.06439-0.9202 0.10352-1.4473zm1.4609 0h3.2773v1.4473h-3.2773v-1.4473zm3.5078 0h3.2754v1.4473h-3.2754v-1.4473zm3.5039 0h1.2598l0.10352 1.4473h-1.3633v-1.4473zm-18.445 1.2969h1.3809v0.71484h-1.3809v-0.71484zm6.2754 0h1.3848v0.71484h-1.3848v-0.71484zm-18.463 0.38477h3.1055v0.33008h-3.1289c0.01049-0.1511 0.0096-0.13134 0.02344-0.33008zm3.3379 0h3.2734v0.33008h-3.2734v-0.33008zm3.5059 0h2.9551c0.01475 0.19538 0.01328 0.17089 0.02539 0.33008h-2.9805v-0.33008zm15.193 0h3.1074v0.33008h-3.1309c0.01076-0.15109 0.0094-0.13136 0.02344-0.33008zm3.3379 0h3.2754v0.33008h-3.2754v-0.33008zm3.5039 0h3.1309l0.02344 0.33008h-3.1543v-0.33008zm-45.422 1.9375h65.121v21.17c0 35.547-31.796 47.871-32.119 47.992l-0.44141 0.16406-0.44531-0.16406c-0.31975-0.1213-32.115-12.445-32.115-47.992v-21.17zm-17.262 0.03906c-1.2852 2.6249-2.9449 5.7632-7.3047 6.2266 0.07959-0.23479 0.15082-0.43864 0.21875-0.63672 0.55647-1.5978 0.8815-2.1085 1.4414-2.8496 0.03225-0.045 0.06325-0.0852 0.09961-0.13086l0.45117-0.59961c1.2021-1.0894 2.7821-1.5658 5.0938-2.0098zm100.13 0c2.3089 0.44395 3.8916 0.92149 5.1191 2.0352 0 0.0063 0.42382 0.57422 0.42382 0.57422 0.0342 0.04575 0.0655 0.08653 0.0977 0.13086 0.5606 0.74106 0.88552 1.2513 1.4434 2.8477 0.0659 0.19808 0.14063 0.40388 0.2168 0.63867-4.355-0.46334-6.0184-3.6017-7.3008-6.2266zm-81.92 0.92188v20.209c0 34.885 31.182 46.972 31.498 47.09l0.11133 0.043 0.11133-0.043c0.31697-0.11809 31.496-12.205 31.496-47.09v-20.209h-0.32031-62.896zm0.64062 0.64844h61.932v19.561c0 2.0795-0.1137 4.0766-0.32422 5.9941h-4.0547v4.3867h3.3633c-5.188 25.947-28.768 35.587-29.954 36.057-1.185-0.47-24.769-10.11-29.951-36.059h3.3613v-4.3867h-4.0527c-0.21055-1.9176-0.32617-3.9146-0.32617-5.9941v-19.561zm91.441 0.79883c0.13174 0.31235 0.29493 0.70703 0.29493 0.70703 0.5853 1.3512 1.1816 2.7264 1.1816 4.3242 0 1.3692-0.49101 2.922-1.748 4.7441-0.12213-0.22024-0.22979-0.41696-0.33203-0.60742-0.39523-1.6622-0.67737-2.2141-1.1426-2.9863-0.0185-0.09488-0.0354-0.18977-0.0566-0.29297l-0.13477-0.70898c0.002-1.6345 0.71272-3.1407 1.9375-5.1797zm-120.46 0.002c1.2255 2.039 1.9355 3.5445 1.9355 5.2129-0.0034 0.0025-0.13281 0.67578-0.13281 0.67578-0.01921 0.1025-0.03685 0.19614-0.05469 0.29102-0.46521 0.77222-0.74746 1.3241-1.1406 2.9863-0.10224 0.18976-0.20842 0.38718-0.33398 0.60742-1.2529-1.8236-1.7461-3.3769-1.7461-4.7461 0-1.5978 0.59508-2.9698 1.1797-4.3203 0 0 0.16191-0.39399 0.29297-0.70703zm30.201 0.16016v18.361h0.31641v-18.361h-0.31641zm1.6465 0v18.361h0.31641v-18.361h-0.31641zm1.6445 0v18.361h0.32031v-18.361h-0.32031zm1.6465 0v18.363h0.31836v-18.363h-0.31836zm1.6465 0v18.363h0.31836v-18.363h-0.31836zm1.6465 0v7.2715c0.09949-0.20224 0.19828-0.40411 0.31836-0.5918v-6.6797h-0.31836zm1.6445 0v5.2559c0.10704-0.08237 0.20572-0.1745 0.32031-0.25v-5.0059h-0.32031zm1.6484 0v4.375c0.10566-0.03462 0.20937-0.06911 0.31641-0.09961v-4.2754h-0.31641zm1.6465 0v4.0684c0.05075-0.0007 0.10326-0.01563 0.1582-0.01563 0.0535 0 0.10602 0.01488 0.1582 0.01563v-4.0684h-0.31641zm1.6445 0v4.2754c0.10838 0.0305 0.21211 0.06361 0.31641 0.09961v-4.375h-0.31641zm1.6445 0v5.0059c0.11462 0.0755 0.2119 0.16758 0.32031 0.25v-5.2559h-0.32031zm1.6465 0v6.6816c0.12212 0.18699 0.21808 0.38761 0.32031 0.58984v-7.2715h-0.32031zm1.6484 0v18.363h0.31641v-18.363h-0.31641zm1.6445 0v18.363h0.31836v-18.363h-0.31836zm1.6465 0v18.363h0.32031v-18.363h-0.32031zm1.6445 0v18.363h0.32031v-18.363h-0.32031zm1.6484 0v18.367h0.31641v-18.367h-0.31641zm1.6465 0v18.367h0.31445v-18.367h-0.31445zm1.6445 0v18.367h0.31836v-18.367h-0.31836zm1.6445 0v18.367h0.32031v-18.367h-0.32031zm1.6465 0v18.367h0.32031v-18.367h-0.32031zm1.6484 0v18.367l0.31641 0.002v-18.369h-0.31641zm1.6445 0v18.367h0.31641v-18.367h-0.31641zm1.6465 0v18.367h0.31836v-18.367h-0.31836zm1.6445 0v18.367h0.32031v-18.367h-0.32031zm1.6504 0v7.2734c0.0975-0.20085 0.19437-0.40411 0.31445-0.5918v-6.6816h-0.31445zm1.6426 0v5.2559c0.10775-0.08237 0.20593-0.17255 0.31641-0.24805v-5.0078h-0.31641zm1.6465 0v4.375c0.10425-0.03462 0.21063-0.06911 0.31836-0.09961v-4.2754h-0.31836zm1.6445 0v4.0684c0.05487-0.0007 0.10391-0.01563 0.16016-0.01563 0.05487 0 0.10522 0.01488 0.16016 0.01563v-4.0684h-0.32031zm1.6484 0v4.2754c0.107 0.0305 0.21143 0.06498 0.31641 0.09961v-4.375h-0.31641zm1.6465 0v5.0078c0.10975 0.0755 0.21212 0.16562 0.31641 0.24805v-5.2559h-0.31641zm1.6445 0v6.6816c0.12212 0.18769 0.22014 0.39095 0.32031 0.5918v-7.2734h-0.32031zm1.6445 0v18.369h0.32031v-18.369h-0.32031zm1.6484 0v18.371h0.31836v-18.371h-0.31836zm1.6465 0v18.371h0.31641v-18.371h-0.31641zm1.6465 0v18.371h0.32031v-18.371h-0.32031zm1.6445 0v18.371h0.31836v-18.371h-0.31836zm-82.045 2.832c-1.0052 2.744-2.3323 6.0419-6.6152 6.9609 0.05146-0.24171 0.1004-0.45125 0.14844-0.65625 0.3863-1.647 0.65836-2.1893 1.1387-2.9844 0.02814-0.0485 0.05509-0.09203 0.08399-0.14258l0.38476-0.64258c1.0855-1.2106 2.6074-1.8509 4.8594-2.5352zm105.64 0h0.002c2.2506 0.68565 3.7736 1.3268 4.877 2.5645 0.002 0.0063 0.36524 0.61523 0.36524 0.61523 0.0309 0.04912 0.0539 0.09278 0.082 0.14062 0.47962 0.79646 0.75284 1.338 1.1426 2.9863 0.0466 0.20361 0.0949 0.41258 0.14844 0.6543-4.2857-0.91905-5.612-4.2162-6.6172-6.9609zm-69.505 2.192c-2.617 0-4.748 2.1482-4.748 4.7891 0 2.6415 2.131 4.7891 4.748 4.7891s4.7461-2.1476 4.7461-4.7891c0-2.6408-2.1291-4.7891-4.7461-4.7891zm32.92 0c-0.05481 0-0.10578 0.01375-0.16016 0.01563-0.02589 0.000889-0.05041 0.0065-0.07617 0.0078-0.43152 0.02192-0.84445 0.1052-1.2383 0.23633l-0.01172 0.0039c-0.10544 0.03542-0.21633 0.05901-0.31836 0.10156-0.22961 0.09576-0.44244 0.21822-0.65234 0.34766-0.01663 0.01058-0.03624 0.01656-0.05273 0.02734-0.21598 0.13695-0.41467 0.29564-0.60547 0.46484-0.0063 0.0055-0.01325 0.01008-0.01953 0.01563v0.002c-0.10876 0.09752-0.21692 0.1937-0.31641 0.30078-0.0012 0.0013-0.0027 0.0026-0.0039 0.0039-0.19771 0.21329-0.37637 0.44253-0.5332 0.68945-0.15693 0.24708-0.29385 0.50609-0.4043 0.78125-0.01871 0.04589-0.02761 0.09599-0.04492 0.14258-0.08501 0.23242-0.16618 0.46719-0.21484 0.71484-0.06031 0.30151-0.0918 0.61394-0.0918 0.93359 0 0.31983 0.03149 0.632 0.0918 0.93359 0.04866 0.2477 0.12984 0.48241 0.21484 0.71484 0.01732 0.04659 0.02621 0.09669 0.04492 0.14258 0.11045 0.27517 0.24737 0.53417 0.4043 0.78125 0.15683 0.24692 0.33549 0.47618 0.5332 0.68945 0.0012 0.0013 0.0027 0.0026 0.0039 0.0039 0.09949 0.10707 0.20765 0.20328 0.31641 0.30078v0.0039c0.0154 0.01358 0.03331 0.02368 0.04883 0.03711 0.18028 0.15736 0.36596 0.30666 0.56836 0.43555 0.05638 0.03707 0.11974 0.06303 0.17774 0.09766 0.174 0.10061 0.34438 0.20511 0.53125 0.2832 0.0013 0.00055 0.0026 0.0014 0.0039 0.002 0.10185 0.04245 0.21311 0.06426 0.31836 0.09961l0.01172 0.0039c0.35157 0.11703 0.7193 0.19003 1.1016 0.2207 0.0715 0.0061 0.14043 0.02289 0.21289 0.02539v-0.002c0.05437 0.0019 0.10535 0.01563 0.16016 0.01563 0.0548 0 0.1058-0.01376 0.16016-0.01563v0.002c0.07062-0.0024 0.13742-0.01757 0.20703-0.02344 0.38092-0.03008 0.74707-0.10481 1.0977-0.2207 0.0076-0.0025 0.01583-0.0033 0.02344-0.0059v-0.002c0.10445-0.03514 0.21531-0.05551 0.31641-0.09766 0.0013-0.000549 0.0026-0.0014 0.0039-0.002 0.17085-0.0714 0.32617-0.16752 0.48633-0.25781 0.07596-0.04397 0.15724-0.07885 0.23047-0.12695 0.19892-0.12719 0.38108-0.27494 0.55859-0.42969 0.01606-0.01404 0.03489-0.02484 0.05078-0.03906v-0.0039c0.10877-0.09751 0.2169-0.19371 0.31641-0.30078 0.0012-0.0013 0.0027-0.0026 0.0039-0.0039 0.19774-0.21327 0.37634-0.44254 0.5332-0.68945 0.15696-0.24708 0.29382-0.50608 0.4043-0.78125 0.000832-0.0021 0.0031-0.0038 0.0039-0.0059 0.01776-0.04375 0.02451-0.09234 0.04102-0.13672 0.08503-0.23244 0.16617-0.46715 0.21484-0.71484 0.06031-0.3016 0.0918-0.61377 0.0918-0.93359 0-0.31965-0.03149-0.63208-0.0918-0.93359-0.04867-0.24766-0.12981-0.48243-0.21484-0.71484-0.01627-0.04447-0.02348-0.09287-0.04102-0.13672-0.000883-0.0022-0.003-0.0037-0.0039-0.0059-0.11047-0.27516-0.24734-0.53417-0.4043-0.78125-0.15686-0.24692-0.33547-0.47616-0.5332-0.68945-0.0012-0.0013-0.0027-0.0026-0.0039-0.0039-0.0995-0.10708-0.20764-0.20326-0.31641-0.30078v-0.002c-0.0062-0.0056-0.0133-0.01009-0.01953-0.01563-0.18907-0.16766-0.38582-0.32493-0.59961-0.46094-0.03533-0.02306-0.07537-0.03843-0.11133-0.06055-0.193-0.116-0.387-0.231-0.598-0.319-0.10127-0.04224-0.21177-0.0644-0.31641-0.09961v-0.002c-0.0076-0.0025-0.01579-0.0034-0.02344-0.0059-0.39162-0.12948-0.80178-0.21277-1.2305-0.23437-0.02511-0.0013-0.04901-0.0069-0.07422-0.0078-0.05436-0.0019-0.10535-0.01563-0.16016-0.01563zm-78.9 1.2344c1.4299 1.8977 2.2926 3.3229 2.4648 4.9844-0.002 0.0025-0.06055 0.68164-0.06055 0.68164-0.0096 0.10525-0.01762 0.20313-0.0293 0.30078-0.3815 0.81794-0.60328 1.3944-0.82422 3.0898-0.08303 0.20361-0.17257 0.41743-0.27344 0.6543-1.6955-1.9766-2.2559-3.6827-2.2559-5.2383 0-1.3187 0.37984-2.5355 0.75586-3.7344 0 0 0.1266-0.41207 0.22266-0.73828zm125.37 0c0.0981 0.32482 0.22461 0.73633 0.22461 0.73633 0.37463 1.1996 0.75588 2.4175 0.75585 3.7383 0 1.5548-0.55979 3.2578-2.2539 5.2344-0.10425-0.23825-0.18904-0.45068-0.27344-0.6543-0.21889-1.694-0.44457-2.2726-0.82812-3.0898-0.006-0.09763-0.0166-0.19357-0.0234-0.29883l-0.0625-0.7168c0.17222-1.6276 1.0324-3.0522 2.4609-4.9492zm-117.68 2.196c-0.71497 2.8368-1.6924 6.2573-5.8594 7.623 0.02745-0.24379 0.05264-0.45698 0.08008-0.66406 0.21477-1.6816 0.4283-2.2508 0.82422-3.0957 0.0247-0.0485 0.04239-0.09397 0.06641-0.14453l0.31836-0.68359c0.94964-1.3159 2.3986-2.1147 4.5703-3.0352zm110 0c2.1696 0.91975 3.617 1.7188 4.5879 3.0645 0 0.0087 0.29688 0.65234 0.29688 0.65234 0.0254 0.052 0.0456 0.09979 0.0703 0.15039 0.39249 0.84286 0.60554 1.4096 0.82031 3.0898 0.0281 0.20639 0.0567 0.42028 0.082 0.66406-4.1636-1.3658-5.1418-4.7857-5.8574-7.6211zm-76.805 3.9023v6.0059h0.31836v-5.4141c-0.12008-0.18769-0.21887-0.38956-0.31836-0.5918zm10.195 0c-0.10225 0.20224-0.19818 0.40481-0.32031 0.5918v5.416h0.32031v-6.0078zm22.729 0v6.0117h0.31445v-5.4219c-0.117-0.188-0.214-0.389-0.311-0.59zm10.193 0c-0.10012 0.20085-0.19818 0.40214-0.32031 0.58984v5.4219h0.32031v-6.0117zm-85.769 0.549c1.62 1.7363 2.6211 3.0622 2.9648 4.6953l0.01172 0.6875c0.0014 0.10875 0.002 0.20243 0.002 0.30078-0.29642 0.85671-0.45814 1.4522-0.5 3.1719-0.06106 0.2057-0.12913 0.42651-0.20117 0.66406-2.2005-2.0805-2.8281-3.9551-2.8281-5.7246 0-1.0409 0.20383-2.0479 0.40625-3.041 0 0 0.080038-0.42009 0.14453-0.75391zm128.91 0.002c0.0631 0.3334 0.14258 0.75195 0.14258 0.75195 0.20241 0.99315 0.41016 2.0001 0.41016 3.041 0 1.7696-0.62842 3.6441-2.8262 5.7246-0.0761-0.23894-0.14216-0.46033-0.20118-0.66602-0.0453-1.7169-0.20543-2.3154-0.5039-3.168 0.002-0.10038 0.002-0.19665 0.006-0.30469l0.0117-0.72266c0.34018-1.5999 1.3449-2.9224 2.9609-4.6562zm-121.04 1.369c-0.4165 2.897-1.0355 6.402-5.0371 8.1992 0.0014-0.24586 0.0043-0.45893 0.0098-0.66602 0.04049-1.6989 0.19202-2.2844 0.49805-3.166 0.0199-0.05125 0.03685-0.09704 0.05469-0.15039l0.24609-0.7168c0.81035-1.4094 2.1659-2.3545 4.2285-3.5zm113.18 0c2.0626 1.1455 3.4201 2.0932 4.2441 3.5352 0 0.0087 0.22852 0.67774 0.22852 0.67774 0.0185 0.05475 0.0362 0.10298 0.0547 0.1543 0.30535 0.88166 0.45815 1.4679 0.5 3.1641 0.004 0.20846 0.006 0.42211 0.01 0.66797-4.0044-1.7972-4.6199-5.3001-5.0371-8.1992zm-69.844 0.0957c-0.10837 0.0845-0.20572 0.1759-0.32031 0.25v3.7422h0.32031v-3.9922zm26.018 0v3.9961h0.31641v-3.7461c-0.1105-0.07413-0.20867-0.16551-0.31641-0.25zm6.9023 0c-0.10425 0.0845-0.20662 0.1759-0.31641 0.25v3.748h0.31641v-3.998zm-39.824 0.002v3.9883h0.32031v-3.7402c-0.11459-0.07413-0.21327-0.16495-0.32031-0.24805zm1.6484 0.87891v3.1094h0.31641v-3.0078c-0.107-0.02975-0.21074-0.06631-0.31641-0.10156zm3.6074 0c-0.10425 0.03538-0.20799 0.07181-0.31641 0.10156v3.0098h0.31641v-3.1113zm29.312 0v3.1152h0.31836v-3.0137c-0.10775-0.02975-0.21406-0.06631-0.31836-0.10156zm3.6094 0c-0.105 0.03538-0.20937 0.07181-0.31641 0.10156v3.0156h0.31641v-3.1172zm-34.883 0.30859v2.8008h0.31641v-2.8008c-0.05212 0.0012-0.10464 0.01367-0.1582 0.01367-0.05487 0-0.10739-0.0123-0.1582-0.01367zm32.918 0v2.8086h0.32031v-2.8086c-0.05487 0.0012-0.10521 0.01367-0.16016 0.01367-0.05625 0-0.10528-0.0123-0.16016-0.01367zm49.564 4.1387c0.0281 0.33866 0.0664 0.76562 0.0664 0.76562 0.0659 0.69742 0.13671 1.4021 0.13671 2.1113 0 1.71-0.44657 3.4543-2.2031 5.2363-0.37945-0.27565-0.83535-0.44243-1.3301-0.46875 0.0391-1.0562-0.0574-1.6005-0.2207-2.3027 0.013-0.09975 0.0214-0.18954 0.0351-0.29688l0.0879-0.72266c0.50362-1.5521 1.6369-2.7633 3.4277-4.3223zm-131.24 0.002c1.7895 1.5569 2.9244 2.7688 3.4355 4.3555 0 0.02487 0.08008 0.68359 0.08008 0.68359 0.0151 0.10875 0.02407 0.20036 0.03711 0.30078-0.16605 0.69881-0.25638 1.2549-0.2207 2.3027-0.4957 0.02493-0.95165 0.19113-1.3301 0.4668-1.7557-1.7796-2.2012-3.5249-2.2012-5.2324 0-0.71128 0.065459-1.4159 0.13477-2.1133 0 0 0.035641-0.42501 0.064453-0.76367zm39.244 0.05469v4.3848h4.3457v-4.3848h-4.3457zm9.5879 0v4.3848h4.3438v-4.3848h-4.3438zm9.5859 0v4.3848h4.3418v-4.3848h-4.3418zm9.584 0v4.3848h4.3438v-4.3848h-4.3438zm9.5859 0v4.3848h4.3438v-4.3848h-4.3438zm9.582 0v4.3848h4.3438v-4.3848h-4.3438zm-79.207 0.48047c-0.0988 2.5404-0.30888 5.5512-2.8477 7.748-0.38574-0.35032-0.87782-0.5757-1.4219-0.62891-0.0081-0.15657-0.02148-0.32864-0.02148-0.45312 0-0.76945 0.09593-1.2264 0.24414-1.8477 0.01025-0.05263 0.02006-0.10217 0.03516-0.1582l0.16992-0.73438c0.66145-1.4884 1.9116-2.5704 3.8418-3.9258zm115.31 0c1.9302 1.354 3.1844 2.4374 3.8555 3.959 0.002 0.0145 0.16016 0.70117 0.16016 0.70117 0.013 0.0575 0.0227 0.10542 0.0371 0.16016 0.14615 0.61916 0.24023 1.0763 0.24023 1.8457 0 0.12814-0.0117 0.30006-0.0176 0.45312-0.0673 0.005-0.1316 0.0089-0.19336 0.01953-0.47002 0.08238-0.89072 0.2998-1.2324 0.60938-2.5388-2.1969-2.7488-5.2077-2.8496-7.748zm-79.238 4.3555v4.3867h4.3438v-4.3867h-4.3438zm9.5859 0v4.3867h4.3438v-4.3867h-4.3438zm9.582 0v4.3867h4.3457v-4.3867h-4.3457zm9.5879 0v4.3867h4.3438v-4.3867h-4.3438zm9.5859 0v4.3867h4.3398v-4.3867h-4.3398zm-78.922 3.096c0.0041 0 0.01084 0.0039 0.01563 0.0039v0.0098h0.04492c0.06588 0.01125 0.12807 0.03006 0.19531 0.03906-0.0015-0.0092-0.0013-0.01711-0.002-0.02539 0.42252 0.05119 0.80496 0.22306 1.1152 0.48633-0.0051 0.0039-0.0106 0.0078-0.01563 0.01172 0.10979 0.09287 0.2024 0.19501 0.29297 0.30859 0.21746 0.27527 0.38397 0.59516 0.45508 0.95117 0.02154 0.12279 0.03906 0.248 0.03906 0.37695 0 0.1112-0.01704 0.21749-0.0332 0.32422-0.05281 0.28071-0.16675 0.53801-0.31055 0.77539-0.07341 0.12125-0.14037 0.24572-0.23438 0.34961-0.26623 0.29366-0.61222 0.48364-1.002 0.59375v0.002c-0.07136 0.02013-0.14396 0.03047-0.21875 0.04297-0.11528 0.01937-0.21966 0.07031-0.3418 0.07031-0.36572 0-0.69429-0.11656-0.99414-0.2793-0.11665-0.06375-0.22071-0.14023-0.32227-0.22266-0.00549 0.0066-0.010257 0.01293-0.015625 0.01953-0.48803-0.39608-0.80664-0.99624-0.80664-1.6758 0-0.59894 0.24224-1.1415 0.63281-1.5332 0.00168-0.0017 0.00416-0.0023 0.00586-0.0039 0.09327-0.08982 0.21189-0.14394 0.31836-0.21875-0.00959-0.009-0.016197-0.01833-0.025391-0.02734 0.31709-0.21991 0.6971-0.34934 1.1055-0.36914 0.000242 0.0039-0.000243 0.0078 0 0.01172 0.03567-0.0025 0.06382-0.02148 0.10156-0.02148zm124.34 0c0.0378 0 0.0683 0.02131 0.10742 0.02344 0.40209 0.02075 0.75811 0.16741 1.0703 0.38281 0.10838 0.07412 0.23296 0.12998 0.32422 0.2207 0.39249 0.39339 0.63672 0.93274 0.63672 1.5332 0 0.67941-0.33578 1.2633-0.82227 1.6602-0.10012 0.08237-0.20891 0.15502-0.32422 0.21875-0.30188 0.16275-0.62715 0.28125-0.99218 0.28125-0.0734 0-0.13313-0.03552-0.20313-0.04102-0.0521-0.005-0.0984-0.02242-0.14648-0.0293-0.0741-0.01387-0.14486-0.0248-0.21485-0.04492-0.0453-0.01387-0.0934-0.01342-0.13867-0.0293-0.33347-0.11912-0.62609-0.30612-0.85937-0.56445-0.0967-0.10388-0.16026-0.22841-0.23438-0.34961-0.1983-0.32621-0.34375-0.69086-0.34375-1.1016 0.00053-0.50823 0.20222-0.95752 0.49414-1.3262 0.0899-0.11362 0.18123-0.21578 0.29102-0.30859 0.27584-0.23409 0.60936-0.3787 0.97851-0.44726 0.0411-0.0087 0.0824-0.02172 0.125-0.02734 0.0789-0.01 0.1494-0.04687 0.23243-0.04687 0.009 0 0.0135-0.0039 0.0195-0.0039zm-88.547 1.7422v4.3848h4.3457v-4.3848h-4.3457zm9.5879 0v4.3848h4.3438v-4.3848h-4.3438zm9.5859 0v4.3848h4.3418v-4.3848h-4.3418zm9.584 0v4.3848h4.3438v-4.3848h-4.3438zm9.5859 0v4.3848h4.3438v-4.3848h-4.3438zm9.582 0v4.3848h4.3438v-4.3848h-4.3438zm-81.828 2.0508c2.8009 1.915 3.3186 4.9106 3.6836 7.4434-2.0633-1.1442-3.4201-2.0919-4.2441-3.5332 0-0.0087-0.23047-0.68359-0.23047-0.68359-0.0199-0.05475-0.03754-0.10372-0.05469-0.1543-0.11459-0.33382-0.20646-0.62876-0.28125-0.95703-0.0028-0.01738-0.0082-0.03337-0.01172-0.05273-0.0295-0.14199-0.05682-0.29818-0.07813-0.46094-0.0075-0.04087-0.01464-0.07494-0.02148-0.11719-0.02059-0.15791-0.03501-0.34161-0.05078-0.5293-0.0055-0.05125-0.0076-0.09933-0.01172-0.14648 0.01274-0.0032 0.02445-0.0084 0.03711-0.01172 0.24336-0.06374 0.47088-0.16276 0.67969-0.29297 0.10725-0.06688 0.20702-0.14262 0.30274-0.22461 0.0025-0.0021 0.0054-0.0037 0.0078-0.0059 0.0014-0.0012 0.0025-0.0027 0.0039-0.0039 0.09288-0.08055 0.17947-0.16644 0.25976-0.25977 0.003-0.0035 0.0068-0.0062 0.0098-0.0098zm120.56 0c0.28819 0.34005 0.66432 0.5987 1.0918 0.74414 0.07 0.02487 0.13877 0.04903 0.21289 0.06641-0.07 1.041-0.21656 1.5575-0.46289 2.2598-0.0179 0.05263-0.0337 0.10343-0.0508 0.16016l-0.24609 0.71289c-0.80897 1.4101-2.1685 2.3558-4.2324 3.5 0.36502-2.5328 0.88662-5.5284 3.6875-7.4434zm-123.69 0.541h0.00195c0.16877 0.09803 0.34845 0.17606 0.53906 0.23242 0.02619 0.0081 0.05159 0.0162 0.07813 0.02344 0.2 0.052 0.404 0.088 0.619 0.088 0.07547 0 0.1469-0.01482 0.2207-0.02148 0.07347 1.0644 0.2277 1.5778 0.46289 2.2637-0.002 0.072-0.0025 0.13797-0.0039 0.21484l-0.01367 0.72266c-0.34 1.599-1.342 2.925-2.9604 4.662-0.0652-0.334-0.1465-0.756-0.1465-0.756-0.201-0.993-0.4043-2.001-0.4043-3.041 0-1.3817 0.39361-2.8304 1.6074-4.3887zm126.81 0c1.2172 1.5569 1.6113 3.0049 1.6113 4.3887 0 1.0389-0.20579 2.0479-0.40821 3.041 0 0-0.0794 0.42203-0.14257 0.75586-1.62-1.7384-2.6204-3.0662-2.9648-4.6973v-0.02148c0-0.11562-0.01-0.66211-0.01-0.66211-0.004-0.07962-0.002-0.14466-0.002-0.21875 0.23467-0.68081 0.38578-1.2103 0.45508-2.2637 0.0782 0.0075 0.1504 0.02148 0.22656 0.02148 0.45218 0 0.87003-0.13182 1.2344-0.34375zm-125.13 0.29883 0.002 0.0098-0.11719 0.002c0.03807-0.0051 0.07772-0.0049 0.11523-0.01172zm26.551 1.0898c0.7952 3.4747 2.9055 11.064 6.7949 15.869-0.55605-0.52493-1.179-1.3234-1.6875-1.9961-1.087-1.441-2.031-2.686-3.033-2.684-0.25255 0-0.60856 0.09544-0.93164 0.45898-0.05302 0.04056-1.8139 1.3529-4.2031 2.9004-2.2993-4.6714-3.9496-10.24-4.7051-13.031 1.6735 1.5271 5.2656 4.8047 5.2656 4.8047l0.30664-0.77148s1.3937-3.5229 2.1992-5.5508zm69.857 0c0.8028 2.0279 2.5078 6.3223 2.5078 6.3223s3.5894-3.2795 5.2637-4.8066c-0.75614 2.7911-2.4084 8.3612-4.707 13.031-2.3624-1.5292-4.1135-2.8319-4.1992-2.8984-0.3225-0.3636-0.68041-0.45703-0.9336-0.45703-1.0052-0.0025-1.9467 1.2423-3.0391 2.6836-0.53315 0.70574-1.2018 1.5763-1.7754 2.0957 3.944-4.7996 6.0786-12.47 6.8828-15.971zm-61.426 1.7891v2.0078c0.1043 0.25488 0.21327 0.5071 0.32031 0.75781v-2.7656h-0.32031zm1.6465 0v5.6289c0.10361 0.20224 0.21406 0.39108 0.31836 0.58984v-6.2188h-0.31836zm1.6465 0.002v8.5508c0.1043 0.17591 0.20995 0.35351 0.31836 0.52734v-9.0781h-0.31836zm1.6465 0v11.096c0.10498 0.1489 0.21201 0.29194 0.31836 0.43945v-11.535h-0.31836zm1.6445 0v13.301c0.10566 0.13574 0.2119 0.26476 0.32031 0.39844v-13.699h-0.32031zm1.6484 0v15.283c0.10566 0.12125 0.20937 0.24611 0.31641 0.36523v-15.648h-0.31641zm1.6465 0v17.082c0.10287 0.11012 0.21211 0.22134 0.31641 0.33008v-17.412h-0.31641zm1.6445 0v18.717c0.10425 0.10188 0.21211 0.1945 0.31641 0.29493v-19.012h-0.31641zm1.6445 0.002v20.211l0.32031 0.27344v-20.484h-0.32031zm1.6465 0v21.592c0.10775 0.0859 0.21258 0.17206 0.32031 0.25586v-21.848h-0.32031zm1.6484 0v22.871c0.10425 0.079 0.21211 0.16071 0.31641 0.23829v-23.109h-0.31641zm1.6445 0v24.053c0.10775 0.0741 0.21338 0.14478 0.31836 0.2168v-24.27h-0.31836zm1.6465 0v25.146c0.10775 0.0685 0.21602 0.13859 0.32031 0.20507v-25.352h-0.32031zm1.6445 0v8.3223c0.10025-0.20015 0.19886-0.40354 0.32031-0.58984v-7.7324h-0.32031zm1.6484 0.002v6.3066c0.10425-0.0845 0.20457-0.17451 0.31641-0.25v-6.0566h-0.31641zm1.6465 0v5.4238c0.10425-0.03538 0.20742-0.06986 0.31445-0.09961v-5.3242h-0.31445zm1.6445 0v5.1172c0.05563-0.0025 0.10528-0.01563 0.16016-0.01563 0.05625 0 0.10327 0.0135 0.1582 0.01563v-5.1172h-0.31836zm1.6445 0v5.3242c0.10775 0.02975 0.21259 0.06631 0.32031 0.10156v-5.4258h-0.32031zm1.6465 0v6.0566c0.11525 0.07337 0.21259 0.16367 0.32031 0.24609v-6.3027h-0.32031zm1.6484 0.002v7.7266c0.118 0.18769 0.21897 0.38957 0.31641 0.5918v-8.3184h-0.31641zm1.6445 0v25.35c0.10425-0.0651 0.21211-0.13859 0.31641-0.20508v-25.145h-0.31641zm1.6465 0v24.268c0.10775-0.072 0.21063-0.14339 0.31836-0.2168v-24.051h-0.31836zm1.6445 0v23.105c0.10838-0.0776 0.21258-0.15932 0.32031-0.23829v-22.867h-0.32031zm1.6504 0v21.844c0.10425-0.0824 0.21015-0.17136 0.31445-0.25586v-21.588h-0.31445zm1.6426 0v20.48c0.10362-0.0894 0.21211-0.18063 0.31641-0.27344v-20.207h-0.31641zm1.6465 0v19.008c0.107-0.10038 0.21063-0.19242 0.31836-0.29492v-18.711l-0.31836-0.002zm1.6445 0.002v17.406c0.107-0.10875 0.21328-0.22329 0.32031-0.33203v-17.074h-0.32031zm1.6484 0v15.643c0.12-0.124 0.227-0.247 0.332-0.368v-15.275h-0.31641zm1.6465 0v13.693c0.10288-0.13229 0.21212-0.26478 0.31641-0.39844v-13.295h-0.31641zm1.6445 0v11.529c0.10912-0.14752 0.21601-0.29249 0.32031-0.44141v-11.088h-0.32031zm1.6445 0v9.0723c0.10838-0.17245 0.2119-0.35017 0.32031-0.52539v-8.5469h-0.32031zm1.6484 0.002v6.209c0.105-0.19808 0.21681-0.38773 0.31836-0.58789v-5.6211h-0.31836zm1.6465 0v2.7598c0.10838-0.25071 0.21142-0.5035 0.31641-0.75977v-2h-0.31641zm-86.803 1.9121c4.167 1.3672 5.1443 4.7862 5.8613 7.623-2.171-0.91768-3.6197-1.7186-4.5879-3.0664 0-0.0075-0.29883-0.64648-0.29883-0.64648-0.0247-0.05263-0.0463-0.09987-0.07031-0.15039-0.39317-0.84425-0.60945-1.4101-0.82422-3.0938-0.0247-0.20708-0.05195-0.42223-0.08008-0.66602zm121.73 0c-0.0281 0.24586-0.0547 0.46341-0.0801 0.67188-0.21476 1.6781-0.42899 2.2452-0.82421 3.0859-0.0261 0.05125-0.0444 0.09974-0.0684 0.15234l-0.31641 0.67969c-0.95032 1.3159-2.3966 2.1155-4.5703 3.0332 0.71565-2.8347 1.6917-6.2559 5.8594-7.623zm-122.26 0.109c0.10224 0.23686 0.19168 0.44872 0.27539 0.65234 0.21957 1.6961 0.44192 2.2759 0.82617 3.0918 0.0089 0.09838 0.01715 0.19551 0.02539 0.30078l0.0625 0.7168c-0.1736 1.6262-1.0316 3.0482-2.4629 4.9473-0.09744-0.32481-0.2207-0.73242-0.2207-0.73242-0.37807-1.2009-0.75977-2.4195-0.75977-3.7402 0-1.5548 0.55979-3.2597 2.2539-5.2363zm122.83 0c1.6948 1.9766 2.2559 3.6788 2.2559 5.2344 0 1.32-0.38444 2.5394-0.75977 3.7383 0 0-0.1259 0.41013-0.22265 0.73633-1.43-1.8977-2.29-3.3197-2.4629-4.9805 0-0.0025 0.0586-0.6875 0.0586-0.6875 0.01-0.10325 0.0191-0.19866 0.0293-0.29492 0.38355-0.81655 0.60466-1.3965 0.82422-3.0898 0.0844-0.20362 0.17235-0.418 0.27734-0.65625zm-61.658 4.0469c-2.6197 0-4.748 2.1488-4.748 4.791 0 2.6415 2.1283 4.7891 4.748 4.7891 2.6156 0 4.7441-2.1476 4.7441-4.7891 0-2.6422-2.1285-4.791-4.7441-4.791zm-59.199 2.1289c4.285 0.91975 5.61 4.2176 6.6152 6.9609-2.2506-0.68428-3.7729-1.3254-4.877-2.5645-0.0014-0.0075-0.36524-0.61523-0.36524-0.61523-0.0295-0.04988-0.05643-0.09352-0.08594-0.14062-0.47962-0.79715-0.74904-1.3401-1.1367-2.9863-0.04871-0.20362-0.09825-0.41397-0.15039-0.6543zm118.88 0c-0.0507 0.24032-0.10042 0.45125-0.14844 0.65625-0.38631 1.6449-0.65904 2.1893-1.1387 2.9844-0.0267 0.04712-0.0539 0.09077-0.082 0.14062l-0.38672 0.64453c-1.0855 1.2106-2.6059 1.8508-4.8613 2.5371 1.0066-2.7454 2.3356-6.0431 6.6172-6.9629zm-119.41 0.18164c0.12351 0.21955 0.23048 0.41569 0.33203 0.60547 0.39248 1.6601 0.67472 2.2135 1.1406 2.9844 0.01921 0.09625 0.0388 0.18908 0.05664 0.29297l0.13476 0.70898c0.01 1.634-0.696 3.141-1.922 5.183-0.13-0.314-0.297-0.709-0.297-0.709-0.582-1.35-1.175-2.724-1.175-4.322 0-1.3692 0.48985-2.922 1.7441-4.7441zm119.93 0c1.2536 1.8222 1.748 3.377 1.748 4.7441 0 1.5978-0.5944 2.9724-1.1797 4.3223 0 0-0.16249 0.39468-0.29492 0.70703-1.2248-2.0383-1.9336-3.545-1.9336-5.2148 0.004 0 0.13086-0.67578 0.13086-0.67578 0.0212-0.10388 0.0381-0.19671 0.0566-0.29297 0.46522-0.77085 0.74678-1.3223 1.1406-2.9824 0.10425-0.18978 0.20647-0.3858 0.33203-0.60742zm-94.201 1.8008c-0.0069 0.03325-0.0098 0.07534-0.0098 0.12109h-0.002c0-0.04087 0.0035-0.08234 0.01172-0.12109zm66.771 0.39258c-0.27446 0.72166-1.2625 3-3.4473 5.8438-0.37258-0.28741-0.75217-0.59681-1.1426-0.92578 0.85494-0.49311 1.6824-1.575 2.5449-2.7129 0.63675-0.84079 1.5701-2.0735 2.0449-2.2051zm-65.547 0.002c0.47413 0.14431 1.4031 1.3659 2.0371 2.2031 0.85742 1.132 1.679 2.2107 2.5293 2.707-0.37862 0.31679-0.76522 0.65174-1.127 0.93359-2.3018-2.9948-3.2296-5.261-3.4395-5.8438zm66.52 0.66992c0.75066 0.5409 2.0972 1.4923 3.7207 2.5332 0.3122 0.20362 0.63459 0.40871 0.96875 0.61719 0.89131 0.55336 1.8265 1.1146 2.7871 1.6465-3.9495 8.2438-16.11 20.139-32.398 23.658 0.28544-3.1138 0.88414-7.34 0.92188-7.6191l0.0039-0.0234v-0.002-0.006c0.0062-0.0264 0.0059-0.0552 0.0059-0.0801 0-0.01-0.01758-0.009-0.01758-0.0195 0-0.004 0.01367-0.041 0.01367-0.041-0.0037 0.01-0.02122 0.0131-0.02734 0.0234-0.01788-0.22993-0.13902-0.44221-0.36133-0.51562-0.26416-0.088-0.60888-0.15061-0.97461-0.20117 10.453-3.1159 17.193-8.5897 21.105-13.184 0.26757-0.31096 0.51639-0.61796 0.75585-0.91992 1.9686-2.4857 3.0926-4.633 3.4961-5.8672zm-67.502 0.002c0.40003 1.2342 1.5275 3.3815 3.4961 5.8672 0.24084 0.30196 0.48778 0.60701 0.75195 0.91797 3.9152 4.5939 10.659 10.072 21.113 13.186-0.33072 0.0491-0.64203 0.10417-0.89453 0.17969-0.0087 0.001-0.01502-0.008-0.02539-0.006-0.01125 0.001-0.01767 0.0148-0.0293 0.0176-0.0063 0.004-0.02047 0.004-0.02734 0.008-0.02812 0.009-0.04223 0.0408-0.06836 0.0547-0.07475 0.0387-0.13926 0.088-0.19141 0.15234-0.04937 0.0796-0.08133 0.17005-0.0957 0.26563-0.0012 0.0145-0.01367 0.0232-0.01367 0.0371-0.0037-0.01-0.02069-0.009-0.02344-0.0176 0 0 0.01 0.0285 0.01172 0.0312-0.0012 0.009-0.01563 0.0103-0.01563 0.0195 0 0.0298 0.0034 0.0593 0.0059 0.0898l0.002 0.008 0.0039 0.0234c0.03912 0.2791 0.6386 4.5067 0.91992 7.6191-16.286-3.5176-28.45-15.414-32.396-23.658 0.95787-0.53051 1.898-1.0931 2.7852-1.6465 0.33347-0.20848 0.65634-0.413 0.97266-0.61523 1.6173-1.0423 2.9708-1.9923 3.7188-2.5332zm28.652 2.1562v12.754c0.11112 0.0651 0.21259 0.1232 0.32031 0.18555v-12.35c-0.1215-0.1863-0.22012-0.38969-0.32031-0.58984zm10.195 0c-0.0975 0.20154-0.19839 0.40342-0.31641 0.5918v12.348c0.10362-0.0624 0.20799-0.11849 0.31641-0.18359v-12.756zm-40.043 0.54297-0.10352 0.07813c0.29505 0.44464 0.1454 0.65224-0.08789 1.0664l-2.1035 3.834 0.07617 0.10156 4.1016-1.127c0.37876-0.10392 0.75679-0.19705 1.0566 0.125l0.09961-0.08008-0.88477-1.1641-0.10156 0.08008c0.10979 0.17938 0.22666 0.45929 0.02148 0.61719-0.10704 0.0845-0.46148 0.18591-0.60352 0.22266l-2.7656 0.76758 1.4238-2.5801c0.0844-0.1586 0.21058-0.42095 0.35742-0.5332 0.23672-0.18422 0.42812 0.05681 0.58594 0.2168l0.10352-0.08008-1.1758-1.5449zm-22.182 0.34961c4.355 0.46334 6.0156 3.6024 7.3008 6.2266-2.3117-0.44394-3.8936-0.91872-5.1211-2.0352 0-0.005-0.42773-0.57421-0.42773-0.57421-0.03499-0.04575-0.06139-0.08527-0.0957-0.12891-0.56059-0.74106-0.88562-1.2524-1.4414-2.8516-0.06999-0.19878-0.13799-0.40332-0.21484-0.63672zm114.75 0c-0.0803 0.23548-0.14945 0.43991-0.21875 0.63867-0.55648 1.5985-0.87954 2.1099-1.4395 2.8496-0.0323 0.04363-0.0627 0.08314-0.0977 0.12891l-0.44922 0.5996c-1.2063 1.0915-2.7861 1.5672-5.0957 2.0098 1.2838-2.6242 2.9423-5.7632 7.3008-6.2266zm-115.24 0.229c0.14615 0.20916 0.27504 0.39346 0.39648 0.57422 0.56333 1.6116 0.90061 2.1301 1.4434 2.8477 0.03225 0.09562 0.05839 0.18657 0.08789 0.28906l0.20898 0.68945c0.02059 0.20363 0.03125 0.40714 0.03125 0.60938 0 1.4129-0.5341 2.8613-1.4199 4.75-0.1633-0.29643-0.37109-0.67769-0.37109-0.67774-0.81927-1.4558-1.6523-2.9401-1.6523-4.8398 0-1.2058 0.38133-2.6008 1.2754-4.2422zm115.76 0c0.89268 1.6414 1.2754 3.0384 1.2754 4.2441 0 1.8997-0.83514 3.3847-1.6524 4.8398 0 0-0.20976 0.37935-0.37304 0.67578-0.88105-1.8817-1.4141-3.3257-1.4141-4.7559 0-0.21124 0.0139-0.42466 0.0352-0.63867 0.002 0 0.20117-0.65821 0.20117-0.65821 0.0295-0.10034 0.0578-0.18958 0.0859-0.28515 0.54275-0.71751 0.88071-1.236 1.4434-2.8477 0.12212-0.18076 0.2516-0.36506 0.39844-0.57422zm-24.221 0.52344-0.0742 0.10742c0.10088 0.10458 0.18419 0.21349 0.0859 0.35547-0.0508 0.07756-0.18488 0.14947-0.33789 0.26172-0.1585 0.1018-0.3311 0.24511-0.47656 0.45703-0.41856 0.61848-0.34373 1.4681 0.2539 1.8809 1.1685 0.80201 2.6881-1.2134 3.5801-0.59766 0.42886 0.29711 0.37307 0.82374 0.10547 1.2227-0.23604 0.35045-0.8901 0.96068-1.8926 0.40039l-0.0723 0.10742 1.334 0.91993 0.0742-0.10743c-0.1125-0.0928-0.19108-0.19168-0.0957-0.32812 0.0974-0.14268 0.22752-0.22499 0.38672-0.34961 0.16467-0.1122 0.35251-0.27066 0.53711-0.54492 0.50843-0.75422 0.3262-1.5945-0.28516-2.0156-1.1548-0.79369-2.7478 1.2591-3.5664 0.69531-0.35611-0.24379-0.37351-0.76288-0.14843-1.1016 0.44531-0.6531 1.2176-0.71251 1.8633-0.32812l0.0723-0.10547-1.3438-0.92969zm-37.354 0.36914v11.672c0.10425 0.0581 0.21623 0.11774 0.31641 0.17383v-11.598c-0.11187-0.0755-0.21211-0.16355-0.31641-0.24805zm6.9023 0.002c-0.10775 0.08237-0.20504 0.17198-0.32031 0.24609v11.598c0.105-0.054 0.21259-0.11562 0.32031-0.17383v-11.67zm-5.2559 0.87891v11.646c0.107 0.054 0.21359 0.10635 0.31445 0.15625v-11.703c-0.107-0.02975-0.21015-0.06436-0.31445-0.09961zm3.6094 0c-0.10775 0.03538-0.21259 0.06986-0.32031 0.09961v11.703c0.10088-0.0491 0.20915-0.1036 0.32031-0.15625v-11.646zm-1.9648 0.30664v12.107c0.05288 0.0208 0.11491 0.049 0.16016 0.0684 0.04525-0.0194 0.10739-0.0476 0.1582-0.0684v-12.107c-0.05487 0.0025-0.10189 0.01563-0.1582 0.01563-0.05487 0-0.10453-0.01363-0.16016-0.01563zm-31.451 1.659l-0.0957 0.0859c0.45286 0.49728 0.32332 0.61872-0.11719 1.0274l-2.1387 1.9902c-0.43777 0.40931-0.57126 0.53047-1.0234 0.0332l-0.09375 0.0879 2.4746 2.7109 1.1406-0.51172-0.0918-0.0996c-0.71703 0.15722-1.0857 0.18807-1.5098-0.27734l-0.6582-0.71875c-0.20379-0.22094-0.21477-0.33053 0-0.5293l1.2695-1.1777 0.64062 0.70312c0.39179 0.42802 0.47081 0.61959 0.04883 1.0898l0.08594 0.0957 1.2109-1.125-0.08789-0.0957c-0.49472 0.4017-0.68617 0.277-1.0684-0.14063l-0.64062-0.70312 1.373-1.2774 0.81445 0.89454c0.45286 0.49657 0.54196 0.67806 0.10352 1.2695l0.09766 0.10742 0.7168-0.75391-2.4512-2.6855zm63.209 0.30468-1.1309 1.207 0.0938 0.0879c0.45834-0.49173 0.58772-0.3652 1.0234 0.0488l1.2715 1.2148c0.28132 0.26663 0.68472 0.65079 0.77734 1.0566 0.10425 0.47372-0.11785 0.97382-0.43555 1.3125-0.32318 0.3456-0.80437 0.54162-1.2559 0.33593-0.24085-0.11012-0.6388-0.44947-0.83984-0.64062l-1.3691-1.3047c-0.43365-0.41416-0.56329-0.53964-0.10352-1.0293l-0.0898-0.0898-1.3828 1.4727 0.0957 0.0898c0.45973-0.49172 0.58784-0.36737 1.0215 0.0469l1.543 1.4726c0.67862 0.64756 1.54 0.99287 2.5781-0.11523 1.0176-1.0867 0.54806-1.9984-0.0723-2.5898l-1.5273-1.457c-0.43571-0.41485-0.56604-0.53951-0.10352-1.0312l-0.0937-0.0879zm-86.062 1.5293c4.425-0.0277 6.3721 2.9831 7.9297 5.4688-2.3446-0.19808-3.9661-0.50702-5.3027-1.4863 0-0.004-0.31098-0.33728-0.42969-0.4668-0.02745-0.0284-0.05469-0.0586-0.05469-0.0586-0.39797-0.42177-0.68838-0.73784-1.002-1.2227v-0.002c-0.26623-0.41416-0.56096-0.97069-0.94726-1.8066-0.06175-0.14059-0.12338-0.26926-0.19336-0.42578zm109.41 0c-0.0693 0.15652-0.13082 0.28727-0.19532 0.42578-0.83505 1.8118-1.2064 2.2445-1.9434 3.0312l-0.0547 0.0605-0.45703 0.49023c-1.3133 0.95715-2.9334 1.2629-5.2774 1.4609 1.5542-2.4857 3.5027-5.4964 7.9277-5.4688zm-109.79 0.32226c0.09812 0.11013 0.17458 0.20288 0.26172 0.30469 0.86318 1.8672 1.2497 2.2858 1.9941 3.0781l0.0098 0.01c0.0151 0.0333 0.02662 0.0623 0.04102 0.0977l0.23242 0.55664 0.04687 0.10742c0.08714 0.41278 0.12695 0.82305 0.12695 1.2441 0 0.20708-0.02365 0.42649-0.04492 0.64258-0.10086 1.0492-0.42056 2.2035-0.9043 3.5977-0.1935-0.28119-0.44531-0.64258-0.44531-0.64258-1.0759-1.5202-2.1777-3.0781-2.1777-5.3262 0-1.0451 0.27271-2.2605 0.85938-3.6699zm110.16 0.002c0.58872 1.4094 0.85937 2.6229 0.85937 3.668 0 2.2481-1.1023 3.8039-2.1816 5.3262 0 0-0.24939 0.36139-0.43945 0.64258-0.48374-1.3955-0.80412-2.5511-0.9043-3.6094-0.0192-0.20846-0.043-0.41885-0.043-0.62109 0-0.43355 0.0436-0.8584 0.13282-1.2871 0 0 0.0161-0.0384 0.0332-0.082 0.0727-0.16345 0.23633-0.55274 0.23633-0.55274 0.013-0.0332 0.0253-0.0619 0.0391-0.0937 0-0.001 0.01-0.01 0.01-0.01 0.74654-0.7923 1.133-1.2104 1.9942-3.0762 0.0871-0.10175 0.1676-0.19458 0.26367-0.30469zm-83.922 1.1387-0.08398 0.0937c0.49334 0.45503 0.37417 0.58913-0.0293 1.0352l-1.957 2.168c-0.40346 0.4481-0.52286 0.57933-1.0176 0.125l-0.08594 0.0977 1.4863 1.3633 0.08594-0.0937c-0.49677-0.45502-0.3761-0.58913 0.02734-1.0352l0.87305-0.96875 0.35742 0.33007-0.29688 2.7324 0.93359 0.85547 0.08398-0.0938c-0.44532-0.47924-0.39938-0.91333-0.33008-1.5117l0.18359-1.582c0.54412 0.32478 1.2069 0.41078 1.668-0.0996 0.27926-0.30889 0.64183-1.0834-0.38672-2.0274l-1.5117-1.3887zm0.77344 1.1465c0.1633 0.1115 0.32904 0.21386 0.47656 0.34961 0.4261 0.3913 0.42332 0.97389 0.03906 1.3984-0.53246 0.59146-1.2231 0.28799-1.7227-0.17187l-0.11523-0.10743 1.3223-1.4688zm55.066 0.31641-2.9941 2.4375 0.65234 0.89844 0.10156-0.0801c-0.24908-0.36915-0.33335-0.7626 0.125-1.1387l0.54883-0.44531 2.2031 2.752c0.37669 0.47026 0.48647 0.61187-0.0352 1.0371l0.0801 0.0996 1.5664-1.2734-0.084-0.10156c-0.51874 0.42456-0.63444 0.28401-1.0098-0.18555l-2.1992-2.752 0.55078-0.44727c0.45836-0.37611 0.82162-0.20959 1.127 0.11524l0.0977-0.0801-0.73046-0.83594zm-52.068 1.9082-0.07813 0.10157c0.53108 0.41416 0.42177 0.55796 0.05469 1.0352l-1.7812 2.3184c-0.36503 0.47719-0.47488 0.61923-1.0039 0.20508l-0.07812 0.10156 1.5859 1.2441 0.08008-0.10351c-0.52971-0.41417-0.41971-0.55797-0.05469-1.0352l1.7812-2.3164c0.36709-0.47786 0.47683-0.61911 1.0059-0.20703l0.07813-0.1016-1.5898-1.2422zm77.18 0.0195c-0.0549 0.42801-0.0748 0.86572-0.0508 1.3027-0.35131 3.109-1.7329 4.6828-4.9551 5.8574 0.39387-3.3548 1.3878-5.4606 5.0059-7.1602zm-104.22 0.002c3.6147 1.6989 4.6055 3.8047 5 7.1582-3.2112-1.1712-4.5951-2.7394-4.9512-5.8359 0.02745-0.44601 0.0102-0.8887-0.04883-1.3223zm29.152 1.6504-0.64258 0.90625 0.10742 0.0723c0.27172-0.35463 0.61397-0.5592 1.1094-0.23437l0.5918 0.38867-1.9062 2.9668c-0.3273 0.50557-0.4231 0.65809-0.98438 0.29101l-0.07031 0.10938 1.6855 1.1016 0.07031-0.10937c-0.56128-0.36638-0.46655-0.51773-0.14062-1.0254l1.9082-2.9668 0.5918 0.38672c0.4954 0.32482 0.45226 0.72575 0.24024 1.1191l0.10742 0.0703 0.56055-0.96289-3.2285-2.1133zm45.299 0.34766c-0.2974-0.003-0.66296 0.0986-1.0996 0.38476l-1.7109 1.127 0.07031 0.10938c0.56059-0.36914 0.6565-0.21848 0.98242 0.28711l1.584 2.459c0.32868 0.50698 0.42446 0.65902-0.13477 1.0254l0.06836 0.10938 1.6836-1.1035-0.06836-0.10937c-0.56401 0.36845-0.66051 0.21664-0.98438-0.29102l-0.71094-1.0957 0.40625-0.26563 2.543 0.98047 1.0566-0.69336-0.06836-0.10937c-0.56951 0.31436-0.97283 0.16095-1.5293-0.0586l-1.4707-0.58007c0.45149-0.44949 0.69818-1.0753 0.32422-1.6543-0.13809-0.2186-0.44573-0.51621-0.94141-0.52148zm-0.41016 0.50976c0.27356 0.0367 0.52515 0.20308 0.69922 0.47461 0.43159 0.66904-0.03089 1.2661-0.59766 1.6387l-0.13281 0.0879-1.0723-1.6641c0.14615-0.13021 0.2857-0.26758 0.45312-0.37695 0.12093-0.0795 0.24606-0.12921 0.37109-0.15235 0.09377-0.0173 0.18811-0.0196 0.2793-0.008zm-3.4277 1.5586-1.7656 0.96485 0.05859 0.11328c0.59146-0.32135 0.67412-0.16334 0.96094 0.36719l1.3809 2.582c0.28544 0.5312 0.37202 0.6884-0.21875 1.0098l0.0625 0.11524 1.7676-0.9668-0.06445-0.11328c-0.58804 0.32275-0.67375 0.16264-0.95508-0.36719l-1.3848-2.5801c-0.28544-0.5319-0.36929-0.69036 0.21875-1.0117l-0.06055-0.11329zm-36.148 0.66016-3.2871 2.8301c-0.41375 0.35461-0.63063 0.45397-0.97852 0.32031l-0.05664 0.11524 1.3262 0.66601 0.05859-0.11523c-0.2278-0.13714-0.46821-0.29232-0.35156-0.53125 0.06107-0.1212 0.24922-0.27625 0.35352-0.35938l0.54883-0.4707 1.6328 0.82031-0.03125 0.64844c-0.0151 0.15514-0.02192 0.42373-0.08984 0.5664-0.11184 0.22645-0.29622 0.19681-0.57617 0.0723l-0.05859 0.11523 1.666 0.83594 0.05664-0.11718c-0.46314-0.25625-0.4065-0.67717-0.375-1.1426l0.27734-4.1973-0.11523-0.0566zm33.309 0.9043-1.332 0.58593 0.04687 0.11915c0.19829-0.0658 0.49852-0.10991 0.60352 0.12695 0.05225 0.12466 0.06445 0.49632 0.06445 0.64453l0.06641 2.8945-2.1348-2.0156c-0.12899-0.12467-0.35166-0.30871-0.42578-0.48047-0.11802-0.27773 0.1615-0.40724 0.35156-0.52149l-0.05078-0.11914-1.7695 0.77344 0.05273 0.12109c0.49609-0.17937 0.65555 0.0155 1 0.34375l3.1758 2.9883 0.11719-0.0488-0.09375-4.2891c-0.0075-0.39685-0.0045-0.78851 0.375-1.0039l-0.04687-0.11914zm-33.904 0.0176-0.12695 2.0781-1.4551-0.72851 1.582-1.3496zm13.211 0.48828c2.2533 1.1954 3.7193 1.7666 3.7852 1.793l0.48438 0.17968c-1.5342-0.0194-2.9078-0.10077-4.0488-0.23242v-1.3086c0-0.0872-0.03977-0.16992-0.08789-0.2461-0.035-0.07-0.08001-0.13083-0.13281-0.18554zm9.5664 0.002c-0.05288 0.0526-0.09783 0.11368-0.13281 0.18359-0.05213 0.0761-0.08594 0.15884-0.08594 0.2461v1.3086c-1.1411 0.1316-2.5157 0.21304-4.0527 0.23242l0.48633-0.17968c0.06588-0.0264 1.5284-0.59771 3.7852-1.791zm-18.453 0.29883c-0.52967 0.0207-1.0168 0.32315-1.1855 0.8457-0.43845 1.3533 1.9053 2.2652 1.5684 3.3027-0.1633 0.49798-0.68053 0.59308-1.1348 0.4414-0.39934-0.13089-1.162-0.59318-0.91016-1.7207l-0.12109-0.041-0.50195 1.5508 0.12109 0.041c0.05764-0.13369 0.12871-0.23817 0.28516-0.18555 0.16194 0.0526 0.2782 0.16 0.43945 0.28125 0.15508 0.12605 0.35703 0.26136 0.66992 0.36524 0.85906 0.28465 1.6087-0.12661 1.8379-0.83789 0.43434-1.3394-1.963-2.3142-1.6562-3.2637 0.1338-0.41065 0.62151-0.57343 1.0078-0.44531 0.74381 0.24587 1.0166 0.9775 0.83203 1.7109l0.12109 0.041 0.50781-1.5664-0.12109-0.041c-0.07274 0.12818-0.15242 0.23955-0.31641 0.18555-0.08714-0.0284-0.19291-0.14219-0.3418-0.25781-0.14066-0.12259-0.32477-0.25103-0.56836-0.33203-0.176-0.0584-0.35665-0.0811-0.5332-0.0742zm7.9551 0.7539c-0.0037 0.13713-0.0027 0.30629-0.0039 0.5293-0.74654-0.117-1.3586-0.24518-1.832-0.37891 0.49952-0.0526 1.0159-0.0922 1.4551-0.11718 0 0 0.20657-0.0172 0.38086-0.0332zm11.43 0c0.17429 0.0159 0.37891 0.0332 0.37891 0.0332 0.43778 0.025 0.95546 0.0646 1.457 0.11718-0.47345 0.13368-1.0841 0.26186-1.832 0.37891 0-0.22301-0.0039-0.39217-0.0039-0.5293zm-14.158 1.0254c0.0088 0.004 0.01776 0.006 0.02539 0.01 0.6889 0.2618 1.6232 0.47623 2.6895 0.64453 0.0062 0.002 0.01045 0.003 0.01758 0.004 0.36092 0.054 0.73722 0.10466 1.127 0.15039 0.0062 0 0.01266 0.002 0.01953 0.002 1.4396 0.16553 3.0309 0.25195 4.5645 0.25195s3.123-0.0864 4.5625-0.25195c0.0062 0 0.01462-0.002 0.02148-0.002 0.38563-0.0457 0.76214-0.0964 1.123-0.15039 0.0075-0.002 0.01524-0.003 0.02148-0.004 1.0649-0.1683 2.0001-0.38273 2.6855-0.64453 0.01-0.004 0.01972-0.006 0.02734-0.01-0.08713 0.64965-0.19791 1.5021-0.3125 2.4219-0.17428 1.4004-0.35222 2.9759-0.4668 4.3223-0.03775 0.44602-0.06469 0.85541-0.08594 1.2363-0.01788 0.31652-0.03103 0.61831-0.03516 0.8711-0.20516 0.16483-1.3457 0.70508-7.541 0.70508-6.5699 0-7.4715-0.61374-7.584-0.73633v-0.16406c0-0.20155-0.0048-0.43188-0.01563-0.67774-0.01575-0.37399-0.04192-0.79018-0.07617-1.2383-0.10838-1.327-0.28412-2.9069-0.45703-4.3184-0.1125-0.91836-0.22272-1.7722-0.31055-2.4219zm14.926 2.4668-2.6465 0.32813c-0.04188 0.16206-0.07223 0.29126-0.09961 0.38476-0.0247 0.0928-0.08694 0.33513-0.19531 0.72852l0.12891 0.043c0.12145-0.25833 0.22991-0.43153 0.31641-0.51953 0.09056-0.0859 0.25081-0.14413 0.47656-0.17188l1.5234-0.19141-0.89062 4.4922 0.46289-0.0606 0.93945-4.916-0.01563-0.11719zm-11.012 0.19141-1.3633 0.5-0.0098 0.10156c0.08714-0.0284 0.18042-0.0527 0.2793-0.0742 0.10224-0.0243 0.18297-0.0329 0.24609-0.0254 0.08985 0.0125 0.14792 0.0503 0.16992 0.11328 0.02125 0.0616 0.02403 0.14947 0.0098 0.26172l-0.39648 3.2656c-0.02745 0.21055-0.08494 0.34386-0.17969 0.39648-0.09331 0.0509-0.2836 0.0703-0.56836 0.0488l-0.0098 0.10742 1.9688 0.24219 0.01367-0.0996c-0.26005-0.0422-0.43477-0.0947-0.52539-0.1543-0.09087-0.0616-0.12281-0.18195-0.10156-0.36133l0.51562-4.248c0.0037-0.0215 0.0039-0.0341 0.0039-0.0391h-0.002c0-0.007-0.0035-0.0168-0.0098-0.0312l-0.04102-0.004zm6.2051 0.17187c-0.40964 0.0145-0.7391 0.13473-0.99023 0.36328-0.24905 0.22439-0.36938 0.49499-0.35938 0.80664 0.01098 0.27429 0.10998 0.52264 0.28906 0.74219 0.11939 0.14544 0.33524 0.33976 0.6543 0.58008-0.29848 0.21955-0.51211 0.40346-0.63086 0.55859-0.17975 0.23549-0.26586 0.50412-0.25586 0.80469 0.0103 0.35114 0.15549 0.6283 0.4375 0.83399 0.28132 0.20503 0.61391 0.30098 0.99609 0.28711 0.42748-0.0139 0.76011-0.14445 1.0078-0.38477 0.24638-0.24033 0.36547-0.5323 0.35547-0.87305-0.01098-0.30196-0.1086-0.55748-0.28906-0.77148-0.17771-0.21609-0.47397-0.468-0.88086-0.75195 0.28544-0.17592 0.49426-0.32614 0.61914-0.45704 0.21956-0.22855 0.32836-0.4802 0.31836-0.75586-0.01098-0.27218-0.12951-0.50826-0.35938-0.70703-0.22918-0.19802-0.53678-0.29126-0.91211-0.27539zm-4.6328 0.0469c-0.06583 0.15445-0.1185 0.27603-0.15625 0.36328-0.03843 0.0859-0.14069 0.31754-0.30469 0.68945l0.12109 0.0586c0.15988-0.23478 0.2917-0.38894 0.39258-0.46094 0.10086-0.0721 0.26772-0.10504 0.49414-0.0977l1.5352 0.0566-1.5723 4.293 0.46094 0.0156 1.6895-4.709 0.0039-0.11523-2.6641-0.0937zm4.5332 0.1543c0.28132-0.008 0.49078 0.0625 0.63281 0.21484 0.14344 0.15306 0.22031 0.34201 0.22656 0.5664 0.01029 0.25835-0.05603 0.48029-0.19531 0.66797-0.08028 0.10874-0.22986 0.24533-0.44531 0.41016-0.27446-0.15999-0.49828-0.32932-0.67188-0.51563-0.16941-0.18214-0.26133-0.38831-0.26758-0.61132-0.0075-0.19669 0.06014-0.36377 0.19531-0.50782 0.13516-0.14271 0.30925-0.21586 0.52539-0.2246zm-0.10742 2.4355c0.4659 0.30959 0.77357 0.54086 0.92383 0.69531 0.15296 0.15445 0.23289 0.36079 0.24414 0.61915 0.0062 0.22786-0.05506 0.41769-0.1875 0.57421-0.13174 0.15795-0.33443 0.24-0.60547 0.25-0.25456 0.009-0.47024-0.0807-0.64453-0.26562-0.17021-0.18769-0.26023-0.43941-0.27148-0.76563-0.0061-0.18837 0.03202-0.38736 0.11914-0.59375 0.08303-0.20707 0.22289-0.37792 0.42188-0.51367z" transform="matrix(.8 0 0 -.8 56.285 415.14)" fill="#1c2957"/><path d="m76.496 6.7812c-1.3318-0.085875-2.5871 0.81672-2.6777 2.2227-0.17772 2.8133 4.2192 3.0221 4.0977 4.9434-0.05215 0.79092-0.86279 1.1668-1.5723 1.1211-1.4293-0.09281-2.3894-1.5287-2.4902-2.8848l-0.22266-0.01367-0.19922 3.1387 0.22266 0.01563c0.1043-0.24586 0.36542-0.46859 0.6543-0.44922 0.13516 0.009 0.32967 0.08445 0.45117 0.14258 0.55715 0.28811 0.95968 0.44017 1.6074 0.48242 1.4677 0.0942 2.8869-0.81147 2.9844-2.3809 0.17771-2.7752-4.2699-3.1373-4.1621-4.832 0.04802-0.76669 0.76376-1.0626 1.4492-1.0176 1.1829 0.076875 2.104 1.3094 2.1699 2.4355l0.224 0.013 0.174-2.7618-0.223-0.0156c-0.08 0.2604-0.122 0.5612-0.461 0.5391-0.198-0.0125-0.378-0.1256-0.544-0.2246-0.508-0.2979-0.887-0.4359-1.483-0.4747zm-8.4707 0.24805c-0.21358-0.00547-0.43689 0.000225-0.66992 0.019531l-4.5488 0.37891 0.01953 0.22461c1.1678-0.096963 1.1943 0.23008 1.2773 1.2461l0.41992 5.166c0.08371 1.0167 0.1112 1.3425-1.0566 1.4395l0.01758 0.22656 4.2461-0.35352-0.01758-0.22461c-1.1672 0.09628-1.193-0.22938-1.2773-1.2461l-0.17969-2.2207 0.56055-0.04687 2.9531 3.5684 2.584-0.21484-0.01758-0.22461c-0.48374 0.03947-0.67745-0.19706-1.0391-0.63477l-2.368-2.808c1.005-0.285 1.784-1.12 1.697-2.199-0.112-1.4041-1.105-2.0574-2.6-2.0957zm13.904 0.46484-0.04102 0.22266c1.156 0.2072 1.1 0.5297 0.923 1.5333l-0.90039 5.1035c-0.1784 1.0028-0.23387 1.3262-1.3887 1.1191l-0.03711 0.22266 4.2598 0.76563 0.03711-0.22266c-1.154-0.208-1.094-0.53-0.921-1.534l0.90039-5.1055c0.17702-1.0035 0.23192-1.3243 1.3867-1.1172l0.04-0.2225-4.258-0.7657zm-14.804 0.0802c0.88659 0.050611 1.3706 0.58235 1.4648 1.7344 0.08303 1.016-0.30516 1.7791-1.7715 1.9004l-0.59766 0.05078-0.29297-3.6113 0.79297-0.066406c0.14315-0.011947 0.27764-0.015043 0.4043-0.00781zm-6.9648 0.37305-6.7188 1.6133 0.05273 0.2207c1.139-0.27288 1.2134 0.045334 1.4453 1.0371l1.1914 5.043c0.23329 0.99178 0.30973 1.3097-0.83203 1.584l0.05273 0.21875 6.9355-1.666-0.24023-2.6562-0.21875 0.05078c-0.11184 2.2509-1.5399 2.5968-2.6816 2.8711-0.83574 0.20085-0.88865-0.02035-1.1309-1.0488l-0.51367-2.1797c1.395-0.3352 1.7065 0.44376 2.1621 1.5117l0.2207-0.05273-1.0117-4.2852-0.21875 0.05274c0.06861 1.1601 0.13909 1.9988-1.2559 2.334l-0.777-3.3059 0.666-0.1602c1.5891-0.38091 2.4433-0.4558 3.2207 1.2715l0.2207-0.05274-0.56641-2.4004zm28.082 0.71484-0.6543 2.1543 0.2168 0.06641c0.7479-1.3083 1.3357-1.4413 2.2441-1.1602l0.64258 0.19922-1.8262 6.002c-0.29436 0.97452-0.38928 1.2877-1.5098 0.94141l-0.06641 0.21484 4.1367 1.2812 0.06445-0.2168c-1.1226-0.34629-1.0236-0.65905-0.72852-1.6328l1.8242-6.0039 0.64453 0.19922c0.90298 0.2805 1.3179 0.72536 1.2109 2.2324l0.21484 0.06445 0.6543-2.1523-7.0684-2.1895zm-36.246 1.3262-2.5195 1.0254 0.08203 0.21094c0.41718-0.17038 1.0358-0.33938 1.2402 0.17383 0.09267 0.2334 0.11813 0.56118 0.09961 1.0176l-0.15234 4.3906-3.4062-3.4023c-0.13929-0.14751-0.43567-0.41847-0.50977-0.60547-0.1585-0.39615 0.31556-0.58966 0.77734-0.77734l-0.08398-0.21094-3.6758 1.498 0.08398 0.21094c0.58117-0.19669 0.89397 0.08223 1.0957 0.28516l5.8516 5.8262 0.18555-0.07617 0.28516-7.1191c0.05558-1.3394 0.13341-1.8851 0.73242-2.2383l-0.086-0.2087zm44.584 1.3068-0.098 0.205c0.55306 0.26319 0.60205 0.53737 0.66992 1.6836l0.27539 4.3066-0.64648 1.377c-0.481 1.0229-0.56855 1.2162-1.7734 0.64062l-0.0957 0.20508 4.2031 2.0059 0.09375-0.20508c-1.2056-0.57554-1.1164-0.76864-0.63476-1.793l0.79688-1.6953 3.082-2.0762c0.68753-0.46472 1.2895-0.9858 1.9297-0.67969l0.0957-0.20312-2.2637-1.082-0.0977 0.20508c0.32661 0.15652 0.78994 0.46049 0.60742 0.84766-0.1043 0.22785-0.51807 0.50142-0.72461 0.64062l-2.6738 1.8145-0.19336-3.3789c-0.01713-0.20154-0.05898-0.72479 0.02539-0.90625 0.16605-0.35225 0.53831-0.1744 0.89648-0.002l0.11-0.206-3.57-1.705zm-54.273 2.918-3.7715 2.1348 0.10938 0.19727c1.0224-0.5783 1.1812-0.29287 1.6738 0.5957l2.5137 4.5234c0.49129 0.88858 0.65001 1.1737-0.37305 1.752l0.11133 0.19922 3.7734-2.1348-0.10938-0.19727c-1.0224 0.5783-1.1818 0.29092-1.6758-0.59766l-2.5098-4.5234c-0.49334-0.88789-0.65323-1.173 0.36914-1.752l-0.11133-0.19726zm-5.3887 3.0293-2.2559 1.6836 0.13477 0.18359c0.67106-0.50212 1.1419-0.43184 1.5488 0.125l2.2695 3.0957-0.01953 0.01367-6.2578-1.6797-2.3438 1.75 0.13281 0.18359c0.48168-0.3594 0.78829-0.27749 1.4141-0.10156l3.582 4.8848c0.40895 0.55614 0.33845 1.0318-0.33398 1.5332l0.13281 0.18164 2.2559-1.6855-0.13476-0.18164c-0.67037 0.50142-1.1413 0.43115-1.5488-0.125l-3.2188-4.3887 0.01953-0.01563 8.541 2.2148 0.16016-0.12109-4.2793-5.8359c-0.40895-0.55615-0.33708-1.0318 0.33398-1.5332l-0.13281-0.18164zm73.322 2.8066c-1.0846 0.1083-2.1227 0.66634-2.918 1.6758-1.5912 2.0196-1.2208 4.5822 0.75195 6.1641 1.9686 1.5818 4.5294 1.3685 6.1172-0.65039 1.5912-2.0196 1.2227-4.5842-0.75-6.166-0.98567-0.79092-2.1166-1.1317-3.2012-1.0234zm1.7578 0.98633c0.38452-0.0086 0.77115 0.11066 1.1465 0.41211 1.502 1.2065 0.23728 3.2597-0.67187 4.4121-0.9071 1.1524-2.6028 2.862-4.1055 1.6562-1.502-1.2058-0.23259-3.2609 0.67383-4.4141 0.67826-0.86434 1.8034-2.0405 2.957-2.0664zm-83.486 2.6836-1.9844 2.0527 0.16016 0.1582c0.77467-0.80131 1.0953-0.55621 1.8281 0.16406l2.6582 2.6191c0.8028 0.79092 1.4345 2.083 0.33594 3.2168-0.99218 1.0271-1.8257 0.6269-2.4844-0.02344l-3.206-3.154c-0.723-0.713-0.953-0.941-0.134-1.787l-0.16211-0.1582-3.0195 3.123 0.1582 0.1582c0.81721-0.84634 1.0515-0.61696 1.7754 0.0957l2.8965 2.8555c1.3215 1.3014 2.7137 1.2837 4.1602-0.21094 2.02-2.0881 0.81114-3.7362-0.02734-4.5625l-2.588-2.552c-0.732-0.721-0.98-1.039-0.207-1.84l-0.16211-0.15625zm89.863 1.8574-0.16797 0.15234c0.79183 0.87058 0.55746 1.0913-0.18359 1.7832l-3.7774 3.5137c-0.7438 0.69056-0.9822 0.91284-1.7754 0.04297l-0.16797 0.1543 2.9336 3.209 0.16406-0.15234c-0.79319-0.86849-0.55355-1.0908 0.1875-1.7812v-0.002l1.7715-1.6465c1.1122 1.2217 0.72489 1.875-0.082 2.8301l0.1543 0.16602 3.0703-2.8555-0.15234-0.16797c-0.87348 0.60532-1.5485 0.94367-2.6621-0.27734l2.4746-2.3047 0.50781 0.55664c1.1068 1.2113 1.5888 1.9245 0.47656 3.4551l0.1543 0.16797 1.793-1.6719-4.7188-5.1719zm-84.109 92.07-0.13672 0.17774c0.92906 0.7196 0.72992 0.98012 0.11719 1.7891l-3.125 4.1152c-0.61274 0.80893-0.81118 1.0678-1.7402 0.3496l-0.13672 0.17969 3.3828 2.6172 0.13672-0.17969c-0.93042-0.71959-0.73256-0.97944-0.11914-1.7891l1.3203-1.7363 0.37695 0.29102c2.0173 1.5618 3.3836 1.2093 4.1055 0.25976 0.90298-1.1885 0.30817-2.5989-1.0957-3.6855l-3.0859-2.3887zm76.537 0.0215-3.4805 2.5976 0.13281 0.18165c0.94346-0.70367 1.1373-0.43972 1.7363 0.3789l1.3066 1.7793-2.3262 1.7383-1.3047-1.7812c-0.60176-0.81932-0.79503-1.0835 0.14843-1.7871l-0.13476-0.17969-3.4746 2.5957 0.13086 0.18164c0.94072-0.70367 1.1346-0.43916 1.7363 0.38086l3.0547 4.166c0.60039 0.81794 0.79756 1.0834-0.14453 1.7871l0.13282 0.18164 3.4766-2.5976-0.13477-0.1836c-0.93935 0.70366-1.1346 0.44111-1.7363-0.3789l-1.4297-1.9492 2.3223-1.7383 1.4336 1.9531c0.59765 0.81931 0.79365 1.0809-0.14844 1.7832l0.13086 0.1836 3.4805-2.5977-0.13282-0.18164c-0.94208 0.70436-1.1346 0.44042-1.7363-0.37891l-3.0566-4.168c-0.59833-0.81794-0.79424-1.0815 0.14648-1.7852l-0.12891-0.18164zm-74.373 2.2578 0.18945 0.14453c0.89063 0.68773 0.88078 1.5065 0.2207 2.375-0.66626 0.87819-1.4396 1.2331-2.3789 0.50586l-0.20703-0.16211 2.1758-2.8633zm4.2246 2.5059-0.11328 0.19336c1.0025 0.61085 0.83445 0.89171 0.31641 1.7637l-2.6504 4.4414c-0.51805 0.87402-0.68756 1.1558-1.6914 0.54492l-0.11523 0.19531 3.7051 2.25 0.11523-0.19336c-1.0032-0.61085-0.83535-0.8909-0.3125-1.7656l2.6465-4.4394c0.51942-0.87474 0.68835-1.1558 1.6895-0.54493l0.11719-0.19531-3.707-2.25zm61.307 1.3516-0.20117 0.10157c0.0178 0.28811 0.0272 0.66529-0.27539 0.81835-0.23329 0.11917-0.51076 0.0906-0.92383 0.13282-0.411 0.0402-0.95771 0.15224-1.7715 0.5664-2.2568 1.1518-3.2385 3.7375-2.0762 6.0625 1.0924 2.1782 3.601 2.916 5.9785 1.7012 0.68958-0.35114 2.1804-1.1676 2.8281-2.2168l-0.63281-1.2695c-0.45561-0.90936-0.60084-1.203 0.27539-1.6504l-0.10156-0.20118-3.6387 1.8555 0.0996 0.20118c1.0484-0.53399 1.1948-0.23944 1.6504 0.66992l0.61914 1.2363c-0.34445 0.37191-0.67895 0.6254-1.0879 0.83593-1.983 1.0098-3.26-0.62306-4.0703-2.2402-0.77604-1.55-1.2772-3.7195 0.61524-4.6836 1.3257-0.67594 2.7971-0.2158 3.8223 0.79883l0.20117-0.10156-1.3105-2.6172zm-56.715 1.4707-0.91602 2.0547 0.20508 0.0918c0.90641-1.2044 1.5045-1.2611 2.3711-0.86914l0.61133 0.2793-2.5527 5.7246c-0.41444 0.93012-0.54494 1.229-1.6133 0.74414l-0.0957 0.20703 3.9453 1.791 0.09375-0.20703c-1.0697-0.48618-0.93524-0.78414-0.52148-1.7129l2.5527-5.7266 0.61328 0.2793c0.86593 0.3913 1.22 0.88507 0.92774 2.3672l0.20508 0.0918 0.91602-2.0527-6.7422-3.0625zm7.8359 3.4648-0.60352 2.166 0.2168 0.0625c0.71978-1.3256 1.3056-1.4712 2.2168-1.2129l0.64844 0.18359-1.6895 6.0449c-0.27515 0.98196-0.36357 1.2967-1.4902 0.97461l-0.06055 0.2168 4.1621 1.1875 0.0625-0.22071c-1.1267-0.31927-1.0401-0.63316-0.76562-1.6152l1.6875-6.043 0.64844 0.18555c0.91259 0.25971 1.3337 0.69134 1.2617 2.2012l0.2168 0.0625 0.60742-2.168-7.1191-2.0254zm38.377 0.19727c-0.38805 0.0244-0.80952 0.10923-1.2559 0.25l-4.3535 1.377 0.06641 0.21484c1.1171-0.35252 1.2144-0.0407 1.5156 0.93164l1.5352 4.9473c0.29848 0.97446 0.39567 1.286-0.7207 1.6406l0.06445 0.21485 4.0703-1.2852-0.06445-0.21484c-1.1198 0.35321-1.2177 0.0395-1.5176-0.9336l-0.66016-2.125 0.53516-0.16797 3.6582 2.8262 2.4746-0.78125-0.06641-0.2168c-0.46246 0.14544-0.70576-0.0424-1.1504-0.38867l-2.9219-2.2148c0.91808-0.50005 1.4982-1.4875 1.1777-2.5215-0.35662-1.1521-1.2226-1.6259-2.3867-1.5527zm-1.0078 0.78515c0.68135 0.0131 1.155 0.44917 1.4473 1.3945 0.30191 0.97239 0.08952 1.8054-1.3164 2.25l-0.56836 0.17969-1.0723-3.459 0.75781-0.24024c0.27412-0.0866 0.52484-0.12937 0.75195-0.125zm-5.2285 0.98633-2.8086 0.41211 0.03125 0.22461c1.0999-0.16138 1.2032 0.2304 1.3535 1.252l0.53516 3.7109c0.15988 1.1199-0.1151 2.5332-1.6699 2.7617-1.4059 0.20639-1.8298-0.62116-1.9629-1.543l-0.64258-4.4688c-0.14546-1.0091-0.19144-1.3328 0.9668-1.5039l-0.03125-0.22461-4.2812 0.62891 0.0332 0.22461c1.1582-0.16968 1.2041 0.15233 1.3496 1.1621l0.58594 4.0469c0.26418 1.843 1.3808 2.6827 3.4297 2.3828 2.8626-0.42109 2.8928-2.4735 2.7227-3.6426l-0.527-3.62c-0.14959-1.0202-0.15713-1.4265 0.94141-1.5879l-0.03516-0.22461zm-21.592 0.42969c-1.1412 0.0486-2.1731 0.81796-2.3418 2.0391-0.38631 2.7911 3.9829 3.3296 3.7188 5.2363-0.10841 0.784-0.94364 1.0984-1.6504 1-1.419-0.19946-2.2676-1.7037-2.2676-3.0625l-0.22266-0.0312-0.43164 3.1152 0.22461 0.0293c0.12144-0.23756 0.40011-0.43794 0.68555-0.39844 0.13518 0.0194 0.32283 0.10849 0.43945 0.17774 0.53451 0.32758 0.92279 0.51023 1.5664 0.59961 1.4567 0.20568 2.9376-0.59026 3.1523-2.1465 0.3815-2.7544-4.0302-3.4518-3.7969-5.1348 0.10499-0.76045 0.84276-0.99935 1.5234-0.90235 1.174 0.16483 2.0015 1.4629 1.9844 2.5918l0.2207 0.0312 0.37891-2.7422-0.22266-0.0312c-0.09743 0.25279-0.16468 0.54908-0.49609 0.50195-0.19899-0.0284-0.37059-0.1555-0.5332-0.26562-0.47962-0.33521-0.84671-0.49949-1.4375-0.58399-0.16528-0.0233-0.33111-0.0304-0.49414-0.0234zm4.6914 0.79687v0.22656c1.1713 0.006 1.1703 0.33347 1.1641 1.3516l-0.01953 5.1836c-0.0034 1.0202-0.0073 1.3468-1.1758 1.3418l-0.0039 0.22656 4.0664 0.0176c2.9662 0.0138 3.631-1.3941 3.6348-2.248 0.0069-1.4101-1.1518-1.9171-2.3203-2.1484v-0.0273c0.91121-0.20916 1.898-0.67152 1.9043-1.8281 0-0.2528 0.0066-2.0649-2.9082-2.0762l-4.3418-0.0195zm3.0918 0.49219 0.34766 0.002c1.6207 0.007 1.7637 1.2534 1.7637 1.6309-0.0028 1.0444-0.60458 1.6462-2.123 1.6387l0.01172-3.2715zm-0.01562 3.748 0.375 0.004c1.9061 0.008 2.0234 1.3944 2.0234 1.8965-0.0069 1.0077-0.6957 1.7323-1.7188 1.7285-0.57021-0.002-0.69391-0.21661-0.69141-0.79492v-0.002l0.01172-2.832z" transform="matrix(.8 0 0 -.8 56.285 415.14)" fill="#fff"/></g></g></svg>
